<svg width="32" height="32" viewBox="0 0 32 32" fill="none" xmlns="http://www.w3.org/2000/svg">
<path fill-rule="evenodd" clip-rule="evenodd" d="M29 0C30.6569 0 32 1.34315 32 3V8.46049C32 9.37652 31.5879 10.0598 31 10.4769V15C31 15.5347 30.8601 16.0366 30.615 16.4714C31.4479 17.0044 32 17.9377 32 19C32 20.6569 30.6569 22 29 22H18.5V26C18.5 26.5523 18.9477 27 19.5 27H22.5C23.8807 27 25 28.1193 25 29.5C25 30.8807 23.8807 32 22.5 32H9.5C8.11929 32 7 30.8807 7 29.5C7 28.1193 8.11929 27 9.5 27H12.5C13.0523 27 13.5 26.5523 13.5 26V22H3C1.34315 22 0 20.6569 0 19C0 17.9377 0.552095 17.0044 1.38499 16.4714C1.13986 16.0366 1 15.5347 1 15V9.76396C0.412637 9.35125 0 8.67333 0 7.77778V3C0 1.34315 1.34315 0 3 0H29ZM15.5 22V26C15.5 27.6569 14.1569 29 12.5 29H9.5C9.22386 29 9 29.2239 9 29.5C9 29.7761 9.22386 30 9.5 30H22.5C22.7761 30 23 29.7761 23 29.5C23 29.2239 22.7761 29 22.5 29H19.5C17.8431 29 16.5 27.6569 16.5 26V22H15.5ZM29 20C29.5523 20 30 19.5523 30 19C30 18.4477 29.5523 18 29 18H3C2.44772 18 2 18.4477 2 19C2 19.5523 2.44772 20 3 20H29ZM29 15C29 15.5523 28.5523 16 28 16H4C3.44772 16 3 15.5523 3 15V10.1698C3.70631 10.0178 4.35414 9.55006 4.70086 8.71795C4.83312 8.40051 5.26033 8.34711 5.46667 8.62222L5.92772 9.23696C7.19265 10.9235 9.78078 10.7269 10.7763 8.8685L11.1424 8.18513C11.5405 7.44213 12.6228 7.49467 12.947 8.27274L13.4569 9.49649C14.4295 11.8307 17.6764 11.9883 18.8705 9.75931L19.1504 9.23693C19.4956 8.59246 20.3932 8.52425 20.8319 9.10915L21.2033 9.60444C22.3517 11.1356 24.6483 11.1356 25.7967 9.60444L26.2557 8.99244C26.4982 8.66904 27.006 8.76214 27.118 9.15055C27.4161 10.1837 28.1707 10.7513 29 10.9074V15ZM30 3C30 2.44772 29.5523 2 29 2H3C2.44772 2 2 2.44772 2 3V7.77778C2 7.93 2.04739 8.01645 2.09653 8.07182C2.15375 8.13628 2.24433 8.191 2.35728 8.21359C2.47023 8.23618 2.57489 8.22051 2.6525 8.18301C2.71916 8.1508 2.79616 8.08923 2.8547 7.94872C3.58217 6.20279 5.93181 5.90909 7.06667 7.42222L7.52772 8.03695C7.9153 8.55374 8.70833 8.49347 9.01337 7.92406L9.37946 7.24069C10.5736 5.01166 13.8205 5.1693 14.7931 7.50351L15.303 8.72726C15.6272 9.50533 16.7095 9.55787 17.1076 8.81487L17.3874 8.29249C18.4232 6.35907 21.1158 6.15445 22.4319 7.90915L22.8033 8.40444C23.1517 8.86889 23.8483 8.86889 24.1967 8.40444L24.6557 7.79244C25.8887 6.14839 28.4701 6.62168 29.0397 8.59623C29.0895 8.76893 29.1717 8.84649 29.243 8.88828C29.3272 8.93768 29.4463 8.96414 29.5788 8.94542C29.7113 8.92669 29.8184 8.86825 29.8856 8.79745C29.9425 8.73754 30 8.64024 30 8.46049V3Z" fill="#252A22"/>
</svg>
