<svg width="32" height="32" viewBox="0 0 32 32" fill="none" xmlns="http://www.w3.org/2000/svg">
<path fill-rule="evenodd" clip-rule="evenodd" d="M12 4C12 2.34315 13.3431 1 15 1C15.3981 1 15.778 1.07753 16.1256 1.21831C16.8528 0.467036 17.8719 0 19 0C20.059 0 21.0218 0.411506 21.7374 1.08333C21.9829 1.02878 22.2381 1 22.5 1C24.2632 1 25.7219 2.30385 25.9646 4H27L27.0194 4.00006C28.6673 4.0105 30 5.34962 30 7V14C30 15.6569 28.6569 17 27 17H23.8293C23.9398 17.3128 24 17.6494 24 18V25C24 25.3506 23.9398 25.6872 23.8293 26H29C30.6569 26 32 27.3431 32 29C32 30.6569 30.6569 32 29 32H3C1.34315 32 0 30.6569 0 29C0 27.6165 0.936468 26.4518 2.21009 26.1051C2.07451 25.7631 2 25.3902 2 25V17.6667C2 16.1939 3.19391 15 4.66667 15H8.17071C8.06015 14.6872 8 14.3506 8 14V6.66667C8 5.19391 9.19391 4 10.6667 4H12ZM17.6254 2.54724C17.9838 2.20803 18.4676 2 19 2C19.3099 2 19.6033 2.07046 19.865 2.19624C19.4301 2.69335 19.1335 3.31465 19.0354 4H18C18 3.47296 17.8641 2.97766 17.6254 2.54724ZM16 4C16 3.44772 15.5523 3 15 3C14.4477 3 14 3.44772 14 4H16ZM23.9146 4C23.7087 3.4174 23.1531 3 22.5 3C21.8469 3 21.2913 3.4174 21.0854 4H23.9146ZM21 26H5C4.44772 26 4 25.5523 4 25V21.5668C4.97836 21.7177 6.04606 21.2894 6.52257 20.1458C6.61584 19.922 6.90231 19.8574 7.08255 20.0197L7.89867 20.7542C8.87837 21.6359 10.3188 21.7749 11.449 21.0968L12.3583 20.5512C12.6687 20.365 13.0642 20.4032 13.3332 20.6453C14.4071 21.6118 16.0373 21.6118 17.1112 20.6453L17.6478 20.1623C18.0127 19.8339 18.5852 19.9124 18.8484 20.3268C19.5994 21.5096 20.8957 21.8347 22 21.5101V25C22 25.5523 21.5523 26 21 26ZM2 29C2 28.4477 2.44772 28 3 28H29C29.5523 28 30 28.4477 30 29C30 29.5523 29.5523 30 29 30H3C2.44772 30 2 29.5523 2 29ZM21.0949 17.0044C21.0636 17.0015 21.032 17 21 17H5C4.44772 17 4 17.4477 4 18V19.2413C4 19.3682 4.03868 19.4339 4.07416 19.4739C4.1177 19.5229 4.18965 19.5676 4.28276 19.5862C4.37586 19.6048 4.45945 19.5913 4.51852 19.5627C4.56664 19.5395 4.62762 19.4937 4.67642 19.3766C5.30001 17.88 7.21536 17.4485 8.42048 18.5331L9.2366 19.2676C9.56316 19.5615 10.0433 19.6078 10.4201 19.3818L11.3293 18.8362C12.3932 18.1979 13.749 18.3287 14.6712 19.1587C14.9844 19.4406 15.46 19.4406 15.7733 19.1587L16.3099 18.6758C17.5946 17.5195 19.6104 17.7957 20.5368 19.2548C20.9661 19.931 22 19.6213 22 18.8339V18.0011C22 17.4802 21.6021 17.0523 21.0949 17.0044ZM11 15H27C27.5523 15 28 14.5523 28 14V10.5101C26.8957 10.8347 25.5994 10.5096 24.8484 9.32681C24.5852 8.91238 24.0127 8.83395 23.6478 9.16235L23.1112 9.64526C22.0373 10.6118 20.4071 10.6118 19.3332 9.64526C19.0642 9.40315 18.6687 9.36498 18.3583 9.55119L17.449 10.0968C16.3188 10.7749 14.8784 10.6359 13.8987 9.75416L13.0826 9.01966C12.9023 8.85744 12.6158 8.92198 12.5226 9.14582C12.0461 10.2894 10.9784 10.7177 10 10.5668V14C10 14.5523 10.4477 15 11 15ZM11 6C10.4477 6 10 6.44772 10 7V8.24131C10 8.36819 10.0387 8.4339 10.0742 8.47387C10.1177 8.52293 10.1897 8.5676 10.2828 8.58622C10.3759 8.60484 10.4595 8.59128 10.5185 8.56274C10.5666 8.53949 10.6276 8.49372 10.6764 8.37659C11.3 6.87998 13.2154 6.44846 14.4205 7.53307L15.2366 8.26758C15.5632 8.56149 16.0433 8.60782 16.4201 8.38177L17.3293 7.83621C18.3932 7.19791 19.749 7.32874 20.6712 8.15868C20.9844 8.44063 21.46 8.44063 21.7733 8.15868L22.3099 7.67576C23.5946 6.51953 25.6104 6.79567 26.5368 8.2548C26.9661 8.93099 28 8.62127 28 7.83388V7.00114C28 6.48018 27.6021 6.05231 27.0949 6.00444C27.0636 6.0015 27.032 6 27 6H11Z" fill="#252A22"/>
</svg>
