<svg width="32" height="32" viewBox="0 0 32 32" fill="none" xmlns="http://www.w3.org/2000/svg">
<path fill-rule="evenodd" clip-rule="evenodd" d="M9 16C6.79086 16 5 17.7909 5 20C5 22.2091 6.79086 24 9 24C11.2091 24 13 22.2091 13 20C13 17.7909 11.2091 16 9 16ZM7 20C7 18.8954 7.89543 18 9 18C10.1046 18 11 18.8954 11 20C11 21.1046 10.1046 22 9 22C7.89543 22 7 21.1046 7 20Z" fill="#252A22"/>
<path fill-rule="evenodd" clip-rule="evenodd" d="M17 23C17 21.3431 18.3431 20 20 20C21.6569 20 23 21.3431 23 23C23 24.6569 21.6569 26 20 26C18.3431 26 17 24.6569 17 23ZM20 22C19.4477 22 19 22.4477 19 23C19 23.5523 19.4477 24 20 24C20.5523 24 21 23.5523 21 23C21 22.4477 20.5523 22 20 22Z" fill="#252A22"/>
<path fill-rule="evenodd" clip-rule="evenodd" d="M12 6C10.3431 6 9 7.34315 9 9C9 10.6569 10.3431 12 12 12C13.6569 12 15 10.6569 15 9C15 7.34315 13.6569 6 12 6ZM11 9C11 8.44772 11.4477 8 12 8C12.5523 8 13 8.44772 13 9C13 9.55228 12.5523 10 12 10C11.4477 10 11 9.55228 11 9Z" fill="#252A22"/>
<path fill-rule="evenodd" clip-rule="evenodd" d="M16 0C7.16344 0 0 7.16344 0 16C0 24.8366 7.16344 32 16 32C24.8366 32 32 24.8366 32 16C32 15.5359 31.9802 15.0762 31.9414 14.6218C31.9077 14.2266 31.6436 13.8887 31.2683 13.7605C30.893 13.6323 30.4774 13.738 30.209 14.0299C29.6593 14.6277 28.8739 15 28 15C26.8839 15 25.9089 14.391 25.3911 13.4825C25.1979 13.1434 24.8251 12.9478 24.4364 12.9813C24.2928 12.9937 24.1472 13 24 13C21.2386 13 19 10.7614 19 8C19 7.85276 19.0063 7.70724 19.0187 7.56365C19.0522 7.17488 18.8566 6.80212 18.5175 6.60891C17.609 6.09115 17 5.11606 17 4C17 3.12613 17.3723 2.3407 17.9701 1.79104C18.262 1.52259 18.3677 1.107 18.2395 0.731702C18.1113 0.356405 17.7734 0.0923341 17.3782 0.0585925C16.9238 0.0197851 16.4641 0 16 0ZM2 16C2 8.46532 7.9522 2.32085 15.411 2.01217C15.1467 2.62144 15 3.29376 15 4C15 5.63693 15.787 7.08907 17 8.00022C17.0001 11.866 20.134 14.9999 23.9998 15C24.9109 16.213 26.3631 17 28 17C28.7062 17 29.3786 16.8533 29.9878 16.589C29.6791 24.0478 23.5347 30 16 30C8.26801 30 2 23.732 2 16Z" fill="#252A22"/>
</svg>
