<svg width="24" height="24" viewBox="0 0 24 24" fill="none" xmlns="http://www.w3.org/2000/svg">
<g clip-path="url(#clip0)">
<path fill-rule="evenodd" clip-rule="evenodd" d="M12.6576 0C7.98508 0 5.7972 4.07291 5.10889 6.94821C5.00165 7.3962 4.97446 7.82824 5.02413 8.23799C3.32476 9.41282 2.17045 11.32 2.01741 13.5034L1.58824 13.1913C1.23767 12.9363 0.762748 12.9362 0.412108 13.1911C0.0614691 13.446 -0.0850349 13.8977 0.0492934 14.3099L2.53277 21.9296C2.93521 23.1644 4.08642 24 5.3851 24H18.615C19.9137 24 21.0649 23.1644 21.4674 21.9296L23.9508 14.3099C24.0852 13.8977 23.9387 13.446 23.588 13.1911C23.2374 12.9362 22.7625 12.9363 22.4119 13.1913L21.9827 13.5034C21.8297 11.3201 20.6755 9.41298 18.9762 8.23813C19.0256 7.82817 18.9984 7.39607 18.8912 6.94821C18.6263 5.84196 18.2298 4.89433 17.5072 4.18278C16.7744 3.46135 15.8236 3.09651 14.6864 2.91487C13.853 2.78177 13.4264 2.08389 13.5626 1.51509L13.6302 1.23281C13.7014 0.935044 13.6324 0.621033 13.4428 0.380649C13.2531 0.140264 12.9638 0 12.6576 0ZM7.05394 7.41383C7.60503 5.11171 9.02998 2.67363 11.553 2.11744C11.73 3.56291 12.9781 4.66739 14.3709 4.88984C15.2761 5.03441 15.775 5.28402 16.104 5.60793C16.443 5.94171 16.7202 6.47031 16.9461 7.41383C17.0564 7.87468 16.9857 8.19348 16.8436 8.44158C16.6877 8.71347 16.3922 8.99057 15.915 9.2405C14.945 9.74857 13.4838 10.0071 12.0049 9.99985C10.5212 9.99257 9.05703 9.73381 8.08424 9.22772C7.60575 8.9788 7.31086 8.7039 7.15579 8.43497C7.01478 8.19043 6.94361 7.87468 7.05394 7.41383ZM18.1022 10.0784C17.7422 10.4639 17.3048 10.7703 16.843 11.0122C15.4713 11.7306 13.6444 12.0079 11.9951 11.9998C10.3551 11.9918 8.53118 11.7147 7.1612 11.002C6.70028 10.7622 6.2627 10.4584 5.90217 10.0751C4.74357 10.9908 4.00007 12.4086 4.00007 14V14.4953C4.1194 14.4645 4.23429 14.4113 4.33824 14.3357L5.32372 13.619C6.02503 13.109 6.97511 13.109 7.67641 13.619L8.6619 14.3357C9.01255 14.5908 9.48759 14.5908 9.83824 14.3357L10.8237 13.619C11.525 13.109 12.4751 13.109 13.1764 13.619L14.1619 14.3357C14.5125 14.5908 14.9876 14.5908 15.3382 14.3357L16.3237 13.619C17.025 13.109 17.9751 13.109 18.6764 13.619L19.6619 14.3357C19.7659 14.4113 19.8807 14.4645 20.0001 14.4953V14C20.0001 12.4105 19.2584 10.9942 18.1022 10.0784ZM2.82822 16.3821L4.43432 21.3099C4.56847 21.7215 4.95221 22 5.3851 22H18.615C19.0479 22 19.4317 21.7215 19.5658 21.3099L21.1719 16.3821C20.2768 16.6709 19.2759 16.528 18.4856 15.9532L17.5001 15.2365L16.5146 15.9532C15.4626 16.7183 14.0375 16.7183 12.9856 15.9532L12.0001 15.2365L11.0146 15.9532C9.96263 16.7183 8.53751 16.7183 7.48555 15.9532L6.50007 15.2365L5.51458 15.9532C4.72427 16.528 3.72331 16.6709 2.82822 16.3821Z" fill="#252A22"/>
</g>
<defs>
<clipPath id="clip0">
<rect width="24" height="24" fill="white"/>
</clipPath>
</defs>
</svg>
