<svg width="32" height="32" viewBox="0 0 32 32" fill="none" xmlns="http://www.w3.org/2000/svg">
<g clip-path="url(#clip0)">
<path fill-rule="evenodd" clip-rule="evenodd" d="M17 0C10.3 0 7.06936 5.59964 6.02991 9.75746C5.95901 10.0411 5.91306 10.3186 5.89127 10.5895C3.54044 12.2133 2.00005 14.9267 2.00005 18V18.4L1.47063 18.1176C1.10953 17.9251 0.667513 17.9719 0.354839 18.236C0.0421647 18.5 -0.0780549 18.928 0.0513631 19.3162L3.59552 29.9487C4.00386 31.1737 5.15027 32 6.44156 32H25.5585C26.8498 32 27.9962 31.1737 28.4046 29.9487L31.9487 19.3162C32.0781 18.928 31.9579 18.5 31.6453 18.236C31.3326 17.9719 30.8906 17.9251 30.5295 18.1176L30 18.4V18C30 14.9268 28.4597 12.2133 26.1089 10.5896C26.087 10.3186 26.0411 10.041 25.9702 9.75746C25.5239 7.97238 24.8464 6.56875 23.5929 5.60264C22.3616 4.65361 20.7246 4.24519 18.6363 4.08598C17.8949 4.02945 17.4407 3.36032 17.5915 2.75748L17.9702 1.24254C18.0449 0.943794 17.9778 0.627304 17.7882 0.384588C17.5987 0.141871 17.308 0 17 0ZM7.97019 10.2425C8.84863 6.72879 11.2399 2.74822 15.6959 2.09336L15.6512 2.27241C15.1707 4.19416 16.6308 5.93888 18.4842 6.08019C20.4438 6.22959 21.6058 6.59618 22.372 7.18673C23.116 7.7602 23.6345 8.66071 24.0299 10.2425C24.2208 11.0059 24.1054 11.58 23.8265 12.0459C23.5308 12.54 22.9965 13.0006 22.2105 13.3947C20.6261 14.1894 18.3025 14.5713 16.0047 14.5605C13.7036 14.5497 11.3772 14.1676 9.78969 13.3768C9.00222 12.9845 8.46826 12.5274 8.17312 12.0373C7.89533 11.576 7.77935 11.0059 7.97019 10.2425ZM25.6907 12.804C25.6448 12.895 25.5955 12.9848 25.5427 13.073C24.9878 14 24.1016 14.6838 23.1071 15.1825C21.1308 16.1737 18.4543 16.572 15.9953 16.5605C13.5465 16.549 10.8729 16.1508 8.89791 15.167C7.90412 14.6719 7.01621 13.9931 6.45979 13.0691C6.407 12.9814 6.35766 12.8923 6.31183 12.8018C4.89226 14.0829 4.00005 15.9373 4.00005 18V19.4667L4.27946 19.6157C4.57358 19.7725 4.92652 19.7725 5.22063 19.6157L7.55887 18.3686C8.14711 18.0549 8.85299 18.0549 9.44122 18.3686L11.7795 19.6157C12.0736 19.7725 12.4265 19.7725 12.7206 19.6157L15.0589 18.3686C15.6471 18.0549 16.353 18.0549 16.9412 18.3686L19.2795 19.6157C19.5736 19.7725 19.9265 19.7725 20.2206 19.6157L22.5589 18.3686C23.1471 18.0549 23.853 18.0549 24.4412 18.3686L26.7795 19.6157C27.0736 19.7725 27.4265 19.7725 27.7206 19.6157L28 19.4667V18C28 15.9384 27.1088 14.085 25.6907 12.804ZM2.74151 21.0621L5.49288 29.3162C5.629 29.7246 6.01113 30 6.44156 30H25.5585C25.989 30 26.3711 29.7246 26.5072 29.3162L29.2586 21.0621L28.6618 21.3804C27.7795 21.851 26.7206 21.851 25.8383 21.3804L23.5 20.1333L21.1618 21.3804C20.2795 21.851 19.2206 21.851 18.3383 21.3804L16 20.1333L13.6618 21.3804C12.7795 21.851 11.7206 21.851 10.8383 21.3804L8.50005 20.1333L6.16181 21.3804C5.27946 21.851 4.22063 21.851 3.33828 21.3804L2.74151 21.0621Z" fill="#252A22"/>
</g>
<defs>
<clipPath id="clip0">
<rect width="32" height="32" fill="white"/>
</clipPath>
</defs>
</svg>
