<?xml version="1.0" encoding="UTF-8"?>
<svg width="24px" height="24px" viewBox="0 0 24 24" version="1.1" xmlns="http://www.w3.org/2000/svg" xmlns:xlink="http://www.w3.org/1999/xlink">
    <title>email_white</title>
    <g id="Page-1" stroke="none" stroke-width="1" fill="none" fill-rule="evenodd">
        <g id="Desktop-HD" transform="translate(-1176.000000, -2428.000000)" fill="#FFFFFF">
            <g id="Footer" transform="translate(0.000000, 2159.000000)">
                <g id="Info" transform="translate(160.000000, 269.000000)">
                    <path d="M1016,9.6 C1016,6.23969 1016,4.55953 1016.65396,3.27606 C1017.2292,2.14708 1018.14708,1.2292 1019.27606,0.653961 C1020.55953,0 1022.23969,0 1025.6,0 L1030.4,0 C1033.7603,0 1035.4405,0 1036.7239,0.653961 C1037.8529,1.2292 1038.7708,2.14708 1039.346,3.27606 C1040,4.55953 1040,6.23969 1040,9.6 L1040,14.4 C1040,17.7603 1040,19.4405 1039.346,20.7239 C1038.7708,21.8529 1037.8529,22.7708 1036.7239,23.346 C1035.4405,24 1033.7603,24 1030.4,24 L1025.6,24 C1022.23969,24 1020.55953,24 1019.27606,23.346 C1018.14708,22.7708 1017.2292,21.8529 1016.65396,20.7239 C1016,19.4405 1016,17.7603 1016,14.4 L1016,9.6 Z M1025.6,2 L1030.4,2 C1032.1132,2 1033.2777,2.00156 1034.1779,2.0751 C1035.0548,2.14674 1035.5032,2.27659 1035.816,2.43597 C1036.5686,2.81947 1037.1805,3.43139 1037.564,4.18404 C1037.7142,4.47871 1037.8381,4.89374 1037.9119,5.67392 L1031.8184,11.7674 C1031.0147,12.5711 1030.4539,13.1308 1029.9821,13.5313 C1029.5192,13.9243 1029.2082,14.105 1028.927,14.1963 C1028.3245,14.3921 1027.6755,14.3921 1027.0729,14.1963 C1026.7918,14.105 1026.4808,13.9243 1026.0179,13.5313 C1025.54612,13.1308 1024.98532,12.5711 1024.18162,11.7674 L1018.08814,5.67392 C1018.16189,4.89374 1018.28583,4.47871 1018.43597,4.18404 C1018.81947,3.43139 1019.43139,2.81947 1020.18404,2.43597 C1020.49684,2.27659 1020.94524,2.14674 1021.82208,2.0751 C1022.72225,2.00156 1023.88684,2 1025.6,2 Z M1018.00138,8.4156 C1018,8.77919 1018,9.17251 1018,9.6 L1018,14.4 C1018,16.1132 1018.00156,17.2777 1018.0751,18.1779 C1018.14674,19.0548 1018.27659,19.5032 1018.43597,19.816 C1018.81947,20.5686 1019.43139,21.1805 1020.18404,21.564 C1020.49684,21.7234 1020.94524,21.8533 1021.82208,21.9249 C1022.72225,21.9984 1023.88684,22 1025.6,22 L1030.4,22 C1032.1132,22 1033.2777,21.9984 1034.1779,21.9249 C1035.0548,21.8533 1035.5032,21.7234 1035.816,21.564 C1036.5686,21.1805 1037.1805,20.5686 1037.564,19.816 C1037.7234,19.5032 1037.8533,19.0548 1037.9249,18.1779 C1037.9984,17.2777 1038,16.1132 1038,14.4 L1038,9.6 C1038,9.17251 1038,8.77919 1037.9986,8.4156 L1033.2023,13.2119 C1032.436,13.9783 1031.8179,14.5964 1031.2764,15.056 C1030.7189,15.5293 1030.1773,15.893 1029.5451,16.0984 C1028.5409,16.4247 1027.4591,16.4247 1026.4549,16.0984 C1025.82271,15.893 1025.28106,15.5293 1024.72358,15.056 C1024.18213,14.5964 1023.56402,13.9782 1022.79767,13.2119 L1018.00138,8.4156 Z" id="email_white"></path>
                </g>
            </g>
        </g>
    </g>
</svg>