<svg width="24" height="24" viewBox="0 0 24 24" fill="none" xmlns="http://www.w3.org/2000/svg">
<path fill-rule="evenodd" clip-rule="evenodd" d="M0.653961 3.27606C0 4.55953 0 6.23969 0 9.6V14.4C0 17.7603 0 19.4405 0.653961 20.7239C1.2292 21.8529 2.14708 22.7708 3.27606 23.346C4.55953 24 6.23969 24 9.6 24H14.4C17.7603 24 19.4405 24 20.7239 23.346C21.8529 22.7708 22.7708 21.8529 23.346 20.7239C24 19.4405 24 17.7603 24 14.4V9.6C24 6.23969 24 4.55953 23.346 3.27606C22.7708 2.14708 21.8529 1.2292 20.7239 0.653961C19.4405 0 17.7603 0 14.4 0H9.6C6.23969 0 4.55953 0 3.27606 0.653961C2.14708 1.2292 1.2292 2.14708 0.653961 3.27606ZM14.4 2H9.6C7.88684 2 6.72225 2.00156 5.82208 2.0751C4.94524 2.14674 4.49684 2.27659 4.18404 2.43597C3.43139 2.81947 2.81947 3.43139 2.43597 4.18404C2.27659 4.49684 2.14674 4.94524 2.0751 5.82208C2.00156 6.72225 2 7.88684 2 9.6V14.4C2 16.1132 2.00156 17.2777 2.0751 18.1779C2.14674 19.0548 2.27659 19.5032 2.43597 19.816C2.81947 20.5686 3.43139 21.1805 4.18404 21.564C4.49684 21.7234 4.94524 21.8533 5.82208 21.9249C6.40926 21.9729 7.10894 21.9902 8 21.9965V15H7C6.44772 15 6 14.5523 6 14C6 13.4477 6.44772 13 7 13H8V10C8 7.79086 9.79086 6 12 6H14C14.5523 6 15 6.44772 15 7C15 7.55228 14.5523 8 14 8H12C10.8954 8 10 8.89543 10 10V13H12C12.5523 13 13 13.4477 13 14C13 14.5523 12.5523 15 12 15H10V22H14.4C16.1132 22 17.2777 21.9984 18.1779 21.9249C19.0548 21.8533 19.5032 21.7234 19.816 21.564C20.5686 21.1805 21.1805 20.5686 21.564 19.816C21.7234 19.5032 21.8533 19.0548 21.9249 18.1779C21.9984 17.2777 22 16.1132 22 14.4V9.6C22 7.88684 21.9984 6.72225 21.9249 5.82208C21.8533 4.94524 21.7234 4.49684 21.564 4.18404C21.1805 3.43139 20.5686 2.81947 19.816 2.43597C19.5032 2.27659 19.0548 2.14674 18.1779 2.0751C17.2777 2.00156 16.1132 2 14.4 2Z" fill="#252A22"/>
</svg>
