<?xml version="1.0" encoding="UTF-8"?>
<svg width="24px" height="24px" viewBox="0 0 24 24" version="1.1" xmlns="http://www.w3.org/2000/svg" xmlns:xlink="http://www.w3.org/1999/xlink">
    <title>facebook_white</title>
    <g id="Page-1" stroke="none" stroke-width="1" fill="none" fill-rule="evenodd">
        <g id="Desktop-HD" transform="translate(-1216.000000, -2428.000000)" fill="#FFFFFF">
            <g id="Footer" transform="translate(0.000000, 2159.000000)">
                <g id="Info" transform="translate(160.000000, 269.000000)">
                    <path d="M1071.45963,0.000897065843 C1074.12878,0.00807359259 1075.5831,0.0726623333 1076.7239,0.653961 C1077.8529,1.2292 1078.7708,2.14708 1079.346,3.27606 C1079.97578,4.51199407 1079.9991,6.11577786 1079.99997,9.23348121 L1080,14.4 C1080,17.7603 1080,19.4405 1079.346,20.7239 C1078.7708,21.8529 1077.8529,22.7708 1076.7239,23.346 C1075.48803,23.9757778 1073.88421,23.9991029 1070.76652,23.9999668 L1065.6,24 C1062.23969,24 1060.55953,24 1059.27606,23.346 C1058.14708,22.7708 1057.2292,21.8529 1056.65396,20.7239 C1056.07266,19.5831 1056.00807,18.128779 1056.0009,15.4596344 L1056.0009,8.54036387 C1056.00807,5.87121852 1056.07266,4.41692222 1056.65396,3.27606 C1057.2292,2.14708 1058.14708,1.2292 1059.27606,0.653961 C1060.41692,0.0726623333 1061.87122,0.00807359259 1064.54036,0.000897065843 L1071.45963,0.000897065843 Z M1071.10146,2.00030082 L1064.89855,2.00030082 C1063.5595,2.00191469 1062.59365,2.01206571 1061.82208,2.0751 C1060.94524,2.14674 1060.49684,2.27659 1060.18404,2.43597 C1059.43139,2.81947 1058.81947,3.43139 1058.43597,4.18404 C1058.27659,4.49684 1058.14674,4.94524 1058.0751,5.82208 C1058.01207,6.59365429 1058.00191,7.55949633 1058.0003,8.89854606 L1058.0003,15.1014638 C1058.00191,16.4405204 1058.01207,17.4063 1058.0751,18.1779 C1058.14674,19.0548 1058.27659,19.5032 1058.43597,19.816 C1058.81947,20.5686 1059.43139,21.1805 1060.18404,21.564 C1060.49684,21.7234 1060.94524,21.8533 1061.82208,21.9249 C1062.40918,21.9728371 1063.10875,21.9901899 1063.99963,21.9964619 L1064,15 L1063,15 C1062.44772,15 1062,14.5522847 1062,14 C1062,13.4871642 1062.38604,13.0644928 1062.88338,13.0067277 L1063,13 L1064,13 L1064,10 C1064,7.85779448 1065.68394,6.10892051 1067.80036,6.00489528 L1068,6 L1070,6 C1070.55228,6 1071,6.44771525 1071,7 C1071,7.51283584 1070.61396,7.93550716 1070.11662,7.99327227 L1070,8 L1068,8 C1066.94561,8 1066.08183,8.81586358 1066.00549,9.85073572 L1066,10 L1066,13 L1068,13 C1068.55228,13 1069,13.4477153 1069,14 C1069,14.5128358 1068.61396,14.9355072 1068.11662,14.9932723 L1068,15 L1066,15 L1066,22 L1070.75882,21.9999499 C1072.27821,21.9994046 1073.342,21.99315 1074.1779,21.9249 C1075.0548,21.8533 1075.5032,21.7234 1075.816,21.564 C1076.5686,21.1805 1077.1805,20.5686 1077.564,19.816 C1077.7234,19.5032 1077.8533,19.0548 1077.9249,18.1779 C1077.99315,17.342 1077.9994,16.2782087 1077.99995,14.7588195 L1077.99995,9.24118721 C1077.9994,7.72181908 1077.99315,6.65795214 1077.9249,5.82208 C1077.8533,4.94524 1077.7234,4.49684 1077.564,4.18404 C1077.1805,3.43139 1076.5686,2.81947 1075.816,2.43597 C1075.5032,2.27659 1075.0548,2.14674 1074.1779,2.0751 C1073.4063,2.01206571 1072.44052,2.00191469 1071.10146,2.00030082 Z" id="facebook_white"></path>
                </g>
            </g>
        </g>
    </g>
</svg>