<svg width="24" height="24" viewBox="0 0 24 24" fill="none" xmlns="http://www.w3.org/2000/svg">
<path d="M19 6C19 6.55228 18.5523 7 18 7C17.4477 7 17 6.55228 17 6C17 5.44772 17.4477 5 18 5C18.5523 5 19 5.44772 19 6Z" fill="#252A22"/>
<path fill-rule="evenodd" clip-rule="evenodd" d="M18 12C18 15.3137 15.3137 18 12 18C8.68629 18 6 15.3137 6 12C6 8.68629 8.68629 6 12 6C15.3137 6 18 8.68629 18 12ZM16 12C16 14.2091 14.2091 16 12 16C9.79086 16 8 14.2091 8 12C8 9.79086 9.79086 8 12 8C14.2091 8 16 9.79086 16 12Z" fill="#252A22"/>
<path fill-rule="evenodd" clip-rule="evenodd" d="M0 9.6C0 6.23969 0 4.55953 0.653961 3.27606C1.2292 2.14708 2.14708 1.2292 3.27606 0.653961C4.55953 0 6.23969 0 9.6 0H14.4C17.7603 0 19.4405 0 20.7239 0.653961C21.8529 1.2292 22.7708 2.14708 23.346 3.27606C24 4.55953 24 6.23969 24 9.6V14.4C24 17.7603 24 19.4405 23.346 20.7239C22.7708 21.8529 21.8529 22.7708 20.7239 23.346C19.4405 24 17.7603 24 14.4 24H9.6C6.23969 24 4.55953 24 3.27606 23.346C2.14708 22.7708 1.2292 21.8529 0.653961 20.7239C0 19.4405 0 17.7603 0 14.4V9.6ZM9.6 2H14.4C16.1132 2 17.2777 2.00156 18.1779 2.0751C19.0548 2.14674 19.5032 2.27659 19.816 2.43597C20.5686 2.81947 21.1805 3.43139 21.564 4.18404C21.7234 4.49684 21.8533 4.94524 21.9249 5.82208C21.9984 6.72225 22 7.88684 22 9.6V14.4C22 16.1132 21.9984 17.2777 21.9249 18.1779C21.8533 19.0548 21.7234 19.5032 21.564 19.816C21.1805 20.5686 20.5686 21.1805 19.816 21.564C19.5032 21.7234 19.0548 21.8533 18.1779 21.9249C17.2777 21.9984 16.1132 22 14.4 22H9.6C7.88684 22 6.72225 21.9984 5.82208 21.9249C4.94524 21.8533 4.49684 21.7234 4.18404 21.564C3.43139 21.1805 2.81947 20.5686 2.43597 19.816C2.27659 19.5032 2.14674 19.0548 2.0751 18.1779C2.00156 17.2777 2 16.1132 2 14.4V9.6C2 7.88684 2.00156 6.72225 2.0751 5.82208C2.14674 4.94524 2.27659 4.49684 2.43597 4.18404C2.81947 3.43139 3.43139 2.81947 4.18404 2.43597C4.49684 2.27659 4.94524 2.14674 5.82208 2.0751C6.72225 2.00156 7.88684 2 9.6 2Z" fill="#252A22"/>
</svg>
