<?xml version="1.0" encoding="UTF-8"?>
<svg width="24px" height="24px" viewBox="0 0 24 24" version="1.1" xmlns="http://www.w3.org/2000/svg" xmlns:xlink="http://www.w3.org/1999/xlink">
    <title>instagram_white</title>
    <g id="Page-1" stroke="none" stroke-width="1" fill="none" fill-rule="evenodd">
        <g id="Desktop-HD" transform="translate(-1256.000000, -2428.000000)" fill="#FFFFFF" fill-rule="nonzero">
            <g id="Footer" transform="translate(0.000000, 2159.000000)">
                <g id="Info" transform="translate(160.000000, 269.000000)">
                    <path d="M1104.54036,0.000897065843 L1111.45963,0.000897065843 L1112.44408,0.00765480949 C1114.50283,0.0337137354 1115.7319,0.148483899 1116.7239,0.653961 C1117.8529,1.2292 1118.7708,2.14708 1119.346,3.27606 C1119.9254,4.41311935 1119.99149,5.86152669 1119.9991,8.51371288 L1119.9991,15.4596344 C1119.99193,18.128779 1119.92733,19.5831 1119.346,20.7239 C1118.7708,21.8529 1117.8529,22.7708 1116.7239,23.346 C1115.5869,23.9253956 1114.13847,23.9914896 1111.48629,23.9991029 L1104.54036,23.9991029 C1101.87122,23.9919259 1100.41692,23.9273333 1099.27606,23.346 C1098.14708,22.7708 1097.2292,21.8529 1096.65396,20.7239 C1096.07266,19.5831 1096.00807,18.128779 1096.0009,15.4596344 L1096.0009,8.54036387 L1096.00765,7.55592087 C1096.03371,5.4971694 1096.14848,4.26811411 1096.65396,3.27606 C1097.2292,2.14708 1098.14708,1.2292 1099.27606,0.653961 C1100.41692,0.0726623333 1101.87122,0.00807359259 1104.54036,0.000897065843 Z M1111.45754,2.00098595 L1104.89855,2.00030082 C1103.5595,2.00191469 1102.59365,2.01206571 1101.82208,2.0751 C1100.94524,2.14674 1100.49684,2.27659 1100.18404,2.43597 C1099.43139,2.81947 1098.81947,3.43139 1098.43597,4.18404 C1098.27659,4.49684 1098.14674,4.94524 1098.0751,5.82208 L1098.0457,6.26328045 C1098.01277,6.88010407 1098.00356,7.61688923 1098.00099,8.54246932 L1098.0003,15.1014638 C1098.00191,16.4405204 1098.01207,17.4063 1098.0751,18.1779 C1098.14674,19.0548 1098.27659,19.5032 1098.43597,19.816 C1098.81947,20.5686 1099.43139,21.1805 1100.18404,21.564 C1100.47077,21.7101167 1100.87145,21.8314451 1101.61163,21.9058021 L1101.82208,21.9249 C1102.65795,21.99315 1103.72182,21.9994046 1105.24119,21.9999499 L1111.42856,21.9990879 C1112.60014,21.9960128 1113.4706,21.98265 1114.1779,21.9249 C1115.0548,21.8533 1115.5032,21.7234 1115.816,21.564 C1116.5686,21.1805 1117.1805,20.5686 1117.564,19.816 C1117.71012,19.5292667 1117.83145,19.1285917 1117.9058,18.3883674 L1117.9249,18.1779 C1117.99315,17.342 1117.9994,16.2782087 1117.99995,14.7588195 L1117.99909,8.57145524 C1117.99601,7.39987173 1117.98265,6.52935643 1117.9249,5.82208 C1117.8533,4.94524 1117.7234,4.49684 1117.564,4.18404 C1117.1805,3.43139 1116.5686,2.81947 1115.816,2.43597 C1115.5032,2.27659 1115.0548,2.14674 1114.1779,2.0751 L1113.73669,2.04569574 C1113.11987,2.01277211 1112.38312,2.0035551 1111.45754,2.00098595 Z M1108,6 C1111.3137,6 1114,8.68629 1114,12 C1114,15.3137 1111.3137,18 1108,18 C1104.68629,18 1102,15.3137 1102,12 C1102,8.68629 1104.68629,6 1108,6 Z M1108,8 C1105.79086,8 1104,9.79086 1104,12 C1104,14.2091 1105.79086,16 1108,16 C1110.2091,16 1112,14.2091 1112,12 C1112,9.79086 1110.2091,8 1108,8 Z M1114,5 C1114.5523,5 1115,5.44772 1115,6 C1115,6.55228 1114.5523,7 1114,7 C1113.4477,7 1113,6.55228 1113,6 C1113,5.44772 1113.4477,5 1114,5 Z" id="instagram_white"></path>
                </g>
            </g>
        </g>
    </g>
</svg>