<svg width="32" height="32" viewBox="0 0 32 32" fill="none" xmlns="http://www.w3.org/2000/svg">
<g clip-path="url(#clip0)">
<path fill-rule="evenodd" clip-rule="evenodd" d="M17.4134 1.2223C17.4876 0.896671 17.3944 0.555476 17.1649 0.31284C16.9354 0.0702038 16.5999 -0.0418402 16.2707 0.0141856C14.5962 0.299117 13.3932 1.00408 12.5527 1.97539C11.7294 2.92676 11.3173 4.06057 11.0793 5.10444C11.0025 5.44114 10.9816 5.7697 11.0164 6.08438C10.296 6.81463 9.735 7.70243 9.38964 8.69141C9.34445 8.55213 9.2686 8.42244 9.16494 8.31285C8.93544 8.07022 8.59995 7.95818 8.2707 8.0142C6.59623 8.29913 5.39323 9.00409 4.55271 9.97541C3.72944 10.9268 3.31731 12.0606 3.07932 13.1045C3.00255 13.4412 2.98167 13.7697 3.01643 14.0844C1.99002 15.1249 1.28706 16.4853 1.0706 18.0025C0.833673 17.9858 0.593307 18.0536 0.396202 18.2029C0.0768878 18.4448 -0.0672549 18.8539 0.0299033 19.2426L1.65117 25.7276C1.69551 25.905 1.75513 26.0753 1.82841 26.2374C0.753719 26.6937 1.19289e-10 27.7588 1.19289e-10 29C1.19289e-10 30.6569 1.34315 32 3 32H29C30.6569 32 32 30.6569 32 29C32 27.7589 31.2463 26.6938 30.1717 26.2374C30.2449 26.0754 30.3046 25.905 30.3489 25.7276L31.9702 19.2426C32.0673 18.8539 31.9232 18.4448 31.6039 18.2029C31.4068 18.0536 31.1664 17.9858 30.9295 18.0025C30.7131 16.4854 30.0102 15.125 28.9838 14.0845C29.0184 13.7698 28.9975 13.4412 28.9208 13.1045C28.5979 11.6884 27.777 10.8248 26.7294 10.3859C26.286 10.2001 25.8759 9.97094 25.6147 9.72673C25.3608 9.48929 25.3805 9.37738 25.3892 9.33437C25.3963 9.29974 25.4043 9.26248 25.4134 9.22231C25.4877 8.89669 25.3944 8.55549 25.1649 8.31285C24.9354 8.07022 24.6 7.95818 24.2707 8.0142C23.629 8.12339 23.0566 8.29423 22.5473 8.51812C22.1986 7.5987 21.6617 6.77184 20.9838 6.08453C21.0184 5.76975 20.9975 5.44114 20.9207 5.10444C20.5979 3.68838 19.7769 2.82476 18.7293 2.38586C18.2859 2.20011 17.8759 1.97093 17.6147 1.72671C17.3607 1.48927 17.3805 1.37737 17.3892 1.33435C17.3962 1.29972 17.4042 1.26247 17.4134 1.2223ZM20.548 28C20.5525 28 20.5571 28 20.5616 28H27.4385C27.443 28 27.4476 28 27.4521 28H29C29.5523 28 30 28.4477 30 29C30 29.5523 29.5523 30 29 30H3C2.44772 30 2 29.5523 2 29C2 28.4477 2.44772 28 3 28H4.54799C4.55253 28 4.55706 28 4.5616 28H11.4385C11.443 28 11.4476 28 11.4521 28H20.548ZM27.4463 26H20.5537C20.0982 25.9965 19.7021 25.6852 19.5915 25.2426L18.5385 21.0309L19.0116 21.3013C19.9339 21.8283 21.0662 21.8283 21.9885 21.3013L24 20.1518L26.0116 21.3013C26.9339 21.8283 28.0662 21.8283 28.9885 21.3013L29.4615 21.0309L28.4086 25.2426C28.298 25.6852 27.9019 25.9965 27.4463 26ZM17.7331 26H14.267C14.2984 25.9113 14.3257 25.8204 14.3489 25.7276L15.7808 20H16.2193L17.6512 25.7276C17.6744 25.8204 17.7017 25.9113 17.7331 26ZM11.4463 26C11.9019 25.9965 12.298 25.6852 12.4086 25.2426L13.4615 21.0309L12.9885 21.3013C12.0662 21.8283 10.9339 21.8283 10.0116 21.3013L8.00005 20.1518L5.98846 21.3013C5.06616 21.8283 3.93393 21.8283 3.01163 21.3013L2.53855 21.0309L3.59146 25.2426C3.70211 25.6852 4.09817 25.9965 4.55374 26H11.4463ZM12.3244 11.681C11.9805 11.1696 11.5344 10.7893 11.0225 10.523C11.1154 9.54126 11.4922 8.64215 12.0699 7.90869C12.2395 8.04233 12.4194 8.15806 12.6024 8.25801C13.5871 8.79593 14.8702 8.9941 15.9948 8.99989C17.1283 9.00573 18.4146 8.80725 19.4012 8.2647C19.5844 8.16396 19.7642 8.04741 19.9335 7.91302C20.3402 8.43052 20.647 9.03027 20.8248 9.68318C20.7302 9.77764 20.6395 9.8751 20.5527 9.97541C20.092 10.5078 19.76 11.0974 19.5152 11.6964C19.339 11.6991 19.1621 11.6552 19.0039 11.5648L16.9923 10.4153C16.3774 10.0639 15.6226 10.0639 15.0077 10.4153L12.9961 11.5648C12.7896 11.6828 12.5516 11.7215 12.3244 11.681ZM18.0116 13.3012C18.3235 13.4795 18.6594 13.5974 19.0031 13.6551C18.9965 13.8006 19.0009 13.9439 19.0164 14.0844C17.9906 15.1243 17.2878 16.4838 17.071 18H14.9292C14.7123 16.4839 14.0096 15.1245 12.9838 14.0845C12.9993 13.944 13.0037 13.8007 12.9969 13.6551C13.3406 13.5974 13.6765 13.4795 13.9884 13.3012L16 12.1518L18.0116 13.3012ZM13.0292 5.54901C13.2297 4.6699 13.5404 3.89036 14.065 3.28411C14.416 2.87857 14.8925 2.5158 15.5712 2.25949C15.7362 2.63359 15.9897 2.94542 16.2488 3.18763C16.7633 3.66868 17.4252 4.00792 17.9565 4.23052C18.409 4.42011 18.7914 4.76249 18.9707 5.54901C19.0314 5.81524 18.9883 5.9707 18.9297 6.07809C18.8605 6.20475 18.7153 6.35939 18.4374 6.51223C17.8629 6.8282 16.9571 7.00482 16.0051 6.99992C15.0473 6.99498 14.1383 6.81806 13.5612 6.50281C13.2821 6.35038 13.1378 6.19711 13.0695 6.0728C13.0121 5.96828 12.9685 5.81527 13.0292 5.54901ZM11.4012 16.2647C11.5844 16.164 11.7643 16.0474 11.9336 15.913C12.5999 16.7609 12.998 17.8296 13.0001 18.9911L11.9962 19.5648C11.6888 19.7404 11.3113 19.7404 11.0039 19.5648L8.99232 18.4153C8.37746 18.0639 7.62263 18.0639 7.00777 18.4153L4.99618 19.5648C4.68875 19.7404 4.31134 19.7404 4.00391 19.5648L3.00007 18.9911C3.00209 17.8276 3.40155 16.7573 4.06994 15.9087C4.23952 16.0423 4.41946 16.1581 4.60245 16.258C5.58719 16.7959 6.87029 16.9941 7.99489 16.9999C9.12839 17.0057 10.4147 16.8073 11.4012 16.2647ZM6.06507 11.2841C5.54046 11.8904 5.22971 12.6699 5.02928 13.549C4.96858 13.8153 5.01214 13.9683 5.06954 14.0728C5.13781 14.1971 5.28218 14.3504 5.56122 14.5028C6.13834 14.8181 7.04731 14.995 8.00519 14.9999C8.95711 15.0048 9.86292 14.8282 10.4375 14.5122C10.7154 14.3594 10.8606 14.2048 10.9297 14.0781C10.9883 13.9707 11.0315 13.8153 10.9708 13.549C10.7915 12.7625 10.4091 12.4201 9.95655 12.2305C9.4252 12.0079 8.76334 11.6687 8.24883 11.1876C7.98977 10.9454 7.73626 10.6336 7.5713 10.2595C6.89254 10.5158 6.416 10.8786 6.06507 11.2841ZM27.4012 16.2647C27.5844 16.164 27.7643 16.0474 27.9336 15.913C28.5999 16.7609 28.998 17.8296 29.0001 18.9911L27.9962 19.5648C27.6888 19.7404 27.3113 19.7404 27.0039 19.5648L24.9923 18.4153C24.3775 18.0639 23.6226 18.0639 23.0078 18.4153L20.9962 19.5648C20.6888 19.7404 20.3113 19.7404 20.0039 19.5648L19.0001 18.9911C19.0021 17.8276 19.4016 16.7573 20.0699 15.9087C20.2395 16.0423 20.4195 16.1581 20.6024 16.258C21.5872 16.7959 22.8703 16.9941 23.9949 16.9999C25.1284 17.0057 26.4147 16.8073 27.4012 16.2647ZM22.0651 11.2841C21.5405 11.8904 21.2297 12.6699 21.0293 13.549C20.9686 13.8153 21.0121 13.9683 21.0695 14.0728C21.1378 14.1971 21.2822 14.3504 21.5612 14.5028C22.1383 14.8181 23.0473 14.995 24.0052 14.9999C24.9571 15.0048 25.8629 14.8282 26.4375 14.5122C26.7154 14.3594 26.8606 14.2048 26.9297 14.0781C26.9883 13.9707 27.0315 13.8153 26.9708 13.549C26.7915 12.7625 26.4091 12.4201 25.9565 12.2305C25.4252 12.0079 24.7633 11.6687 24.2488 11.1876C23.9898 10.9454 23.7363 10.6336 23.5713 10.2595C22.8925 10.5158 22.416 10.8786 22.0651 11.2841Z" fill="#252A22"/>
</g>
<defs>
<clipPath id="clip0">
<rect width="32" height="32" fill="white"/>
</clipPath>
</defs>
</svg>
