<svg width="32" height="32" viewBox="0 0 32 32" fill="none" xmlns="http://www.w3.org/2000/svg">
<path fill-rule="evenodd" clip-rule="evenodd" d="M12 1C12.3981 1 12.778 1.07753 13.1256 1.21831C13.8528 0.467036 14.8719 0 16 0C17.059 0 18.0218 0.411506 18.7374 1.08333C18.9829 1.02878 19.2381 1 19.5 1C21.2632 1 22.7219 2.30385 22.9646 4H26.1203C28.2628 4 30.2276 5.19105 31.2186 7.09053L31.2719 7.1927C32.434 9.42001 31.9702 12.1487 30.1374 13.8669C29.4117 14.5472 29 15.4976 29 16.4923V25C29 25.3506 28.9398 25.6872 28.8293 26H29C30.6569 26 32 27.3431 32 29C32 30.6569 30.6569 32 29 32H3C1.34315 32 0 30.6569 0 29C0 27.3431 1.34315 26 3 26H3.17071C3.06016 25.6872 3 25.3506 3 25V16.4923C3 15.4976 2.58828 14.5472 1.8626 13.8669C0.0298297 12.1487 -0.434015 9.42001 0.728062 7.1927L0.78137 7.09052C1.7724 5.19104 3.73723 4 5.87969 4H9C9 2.34315 10.3431 1 12 1ZM6 26H26C26.5523 26 27 25.5523 27 25V16.4923C27 15.637 27.1957 14.8028 27.5613 14.049L24.2924 11.6262C23.9584 11.3786 23.506 11.3635 23.1562 11.5884L20.7334 13.1459C19.7452 13.7812 18.4771 13.7812 17.4888 13.1459L16.3525 12.4154C16.0732 12.2359 15.723 12.2067 15.4178 12.3375L12.7033 13.5008C11.7878 13.8932 10.7372 13.8056 9.8993 13.2669L7.55259 11.7583C7.14105 11.4938 6.59853 11.5658 6.2703 11.9286L4.4081 13.9868C4.79342 14.7568 5 15.6134 5 16.4923V25C5 25.5523 5.44772 26 6 26ZM3 28C2.44772 28 2 28.4477 2 29C2 29.5523 2.44772 30 3 30H29C29.5523 30 30 29.5523 30 29C30 28.4477 29.5523 28 29 28H3ZM19.5 3C20.1531 3 20.7087 3.4174 20.9146 4H18.0854C18.2913 3.4174 18.8469 3 19.5 3ZM16.865 2.19624C16.4301 2.69335 16.1335 3.31465 16.0354 4H15C15 3.47296 14.8641 2.97766 14.6254 2.54724C14.9838 2.20803 15.4676 2 16 2C16.3099 2 16.6033 2.07046 16.865 2.19624ZM12 3C12.5523 3 13 3.44772 13 4H11C11 3.44772 11.4477 3 12 3ZM2.55454 8.01566C3.2009 6.77681 4.48237 6 5.87969 6H26.1203C27.5176 6 28.7991 6.77681 29.4455 8.01566L29.4988 8.11784C30.2457 9.54949 29.9476 11.3034 28.7695 12.4078L28.7415 12.4343L25.4833 10.0194C24.4812 9.27663 23.124 9.23149 22.0747 9.90603L19.6519 11.4636C19.3225 11.6753 18.8998 11.6753 18.5704 11.4636L17.434 10.7331C16.5961 10.1944 15.5456 10.1068 14.63 10.4992L11.9155 11.6625C11.6103 11.7933 11.2601 11.7641 10.9808 11.5846L8.6341 10.076C7.3995 9.2823 5.77193 9.49841 4.78723 10.5868L3.18172 12.3613C2.04432 11.2546 1.76469 9.52953 2.50123 8.11783L2.55454 8.01566Z" fill="#252A22"/>
</svg>
