<svg width="32" height="32" viewBox="0 0 32 32" fill="none" xmlns="http://www.w3.org/2000/svg">
<path fill-rule="evenodd" clip-rule="evenodd" d="M9 16C9 13.7909 10.7909 12 13 12C15.2091 12 17 13.7909 17 16C17 18.2091 15.2091 20 13 20C10.7909 20 9 18.2091 9 16ZM13 14C11.8954 14 11 14.8954 11 16C11 17.1046 11.8954 18 13 18C14.1046 18 15 17.1046 15 16C15 14.8954 14.1046 14 13 14Z" fill="#252A22"/>
<path fill-rule="evenodd" clip-rule="evenodd" d="M12 5C10.3431 5 9 6.34314 9 8C9 9.65685 10.3431 11 12 11C13.6569 11 15 9.65685 15 8C15 6.34314 13.6569 5 12 5ZM11 8C11 7.44771 11.4477 7 12 7C12.5523 7 13 7.44771 13 8C13 8.55228 12.5523 9 12 9C11.4477 9 11 8.55228 11 8Z" fill="#252A22"/>
<path fill-rule="evenodd" clip-rule="evenodd" d="M16.7071 2.53553C19.4408 -0.198137 23.873 -0.198132 26.6066 2.53554L29.1213 5.05025C31.855 7.78392 31.855 12.2161 29.1213 14.9497L24.5895 19.4816C24.5064 19.6265 24.4176 19.7691 24.3232 19.909L30.2929 25.8787C31.4645 27.0503 31.4645 28.9497 30.2929 30.1213L30.1213 30.2929C28.9498 31.4645 27.0503 31.4645 25.8787 30.2929L19.909 24.3232C18.6821 25.1508 17.251 25.5473 15.8285 25.5126C14.4059 25.5473 12.9748 25.1508 11.7479 24.3232L5.77819 30.2929C4.60661 31.4645 2.70712 31.4645 1.53554 30.2929L1.36397 30.1213C0.192398 28.9497 0.192396 27.0503 1.36397 25.8787L7.33369 19.909C7.23931 19.7691 7.15054 19.6265 7.06737 19.4816L2.53554 14.9497C-0.198126 12.2161 -0.198128 7.78392 2.53554 5.05025L5.05026 2.53554C7.78393 -0.198132 12.2161 -0.198137 14.9498 2.53553L15.8284 3.41422L16.7071 2.53553ZM17.2427 4.82844L23.4645 11.0503C24.7634 12.3492 25.4451 14.0316 25.5097 15.733L27.7071 13.5355C29.6598 11.5829 29.6598 8.41709 27.7071 6.46447L25.1924 3.94975C23.2398 1.99713 20.074 1.99713 18.1213 3.94975L17.2427 4.82844ZM8.65686 21.4142L10.2427 23L4.36397 28.8787C3.97345 29.2692 3.34028 29.2692 2.94976 28.8787L2.77819 28.7071C2.38766 28.3166 2.38766 27.6834 2.77818 27.2929L8.65686 21.4142ZM21.4142 23L23 21.4142L28.8787 27.2929C29.2692 27.6834 29.2692 28.3166 28.8787 28.7071L28.7071 28.8787C28.3166 29.2692 27.6834 29.2692 27.2929 28.8787L21.4142 23ZM22.0503 12.4645C24.0029 14.4171 24.0029 17.5829 22.0503 19.5355L19.5355 22.0502C17.5829 24.0029 14.4171 24.0029 12.4645 22.0503L3.94976 13.5355C1.99714 11.5829 1.99713 8.41709 3.94976 6.46447L6.46447 3.94975C8.41709 1.99713 11.5829 1.99713 13.5355 3.94975L22.0503 12.4645Z" fill="#252A22"/>
</svg>
