<svg width="24" height="24" viewBox="0 0 24 24" fill="none" xmlns="http://www.w3.org/2000/svg">
<path fill-rule="evenodd" clip-rule="evenodd" d="M0 9.6C0 6.23969 0 4.55953 0.653961 3.27606C1.2292 2.14708 2.14708 1.2292 3.27606 0.653961C4.55953 0 6.23969 0 9.6 0H14.4C17.7603 0 19.4405 0 20.7239 0.653961C21.8529 1.2292 22.7708 2.14708 23.346 3.27606C24 4.55953 24 6.23969 24 9.6V14.4C24 17.7603 24 19.4405 23.346 20.7239C22.7708 21.8529 21.8529 22.7708 20.7239 23.346C19.4405 24 17.7603 24 14.4 24H9.6C6.23969 24 4.55953 24 3.27606 23.346C2.14708 22.7708 1.2292 21.8529 0.653961 20.7239C0 19.4405 0 17.7603 0 14.4V9.6ZM9.6 2H14.4C16.1132 2 17.2777 2.00156 18.1779 2.0751C19.0548 2.14674 19.5032 2.27659 19.816 2.43597C20.5686 2.81947 21.1805 3.43139 21.564 4.18404C21.7142 4.47871 21.8381 4.89374 21.9119 5.67392L15.8184 11.7674C15.0147 12.5711 14.4539 13.1308 13.9821 13.5313C13.5192 13.9243 13.2082 14.105 12.927 14.1963C12.3245 14.3921 11.6755 14.3921 11.0729 14.1963C10.7918 14.105 10.4808 13.9243 10.0179 13.5313C9.54612 13.1308 8.98532 12.5711 8.18162 11.7674L2.08814 5.67392C2.16189 4.89374 2.28583 4.47871 2.43597 4.18404C2.81947 3.43139 3.43139 2.81947 4.18404 2.43597C4.49684 2.27659 4.94524 2.14674 5.82208 2.0751C6.72225 2.00156 7.88684 2 9.6 2ZM2.00138 8.4156C2.0001 8.77919 2 9.17251 2 9.6V14.4C2 16.1132 2.00156 17.2777 2.0751 18.1779C2.14674 19.0548 2.27659 19.5032 2.43597 19.816C2.81947 20.5686 3.43139 21.1805 4.18404 21.564C4.49684 21.7234 4.94524 21.8533 5.82208 21.9249C6.72225 21.9984 7.88684 22 9.6 22H14.4C16.1132 22 17.2777 21.9984 18.1779 21.9249C19.0548 21.8533 19.5032 21.7234 19.816 21.564C20.5686 21.1805 21.1805 20.5686 21.564 19.816C21.7234 19.5032 21.8533 19.0548 21.9249 18.1779C21.9984 17.2777 22 16.1132 22 14.4V9.6C22 9.17251 21.9999 8.77919 21.9986 8.4156L17.2023 13.2119C16.436 13.9783 15.8179 14.5964 15.2764 15.056C14.7189 15.5293 14.1773 15.893 13.5451 16.0984C12.5409 16.4247 11.4591 16.4247 10.4549 16.0984C9.82271 15.893 9.28106 15.5293 8.72358 15.056C8.18213 14.5964 7.56402 13.9782 6.79767 13.2119L2.00138 8.4156Z" fill="#252A22"/>
</svg>
