<svg width="32" height="32" viewBox="0 0 32 32" fill="none" xmlns="http://www.w3.org/2000/svg">
<path fill-rule="evenodd" clip-rule="evenodd" d="M23.1115 0C24.7104 0 26 1.30226 26 2.89388V9L26.0194 9.00006C27.6673 9.0105 29 10.3496 29 12V19L29.0194 19.0001C30.6673 19.0105 32 20.3496 32 22V29C32 30.6569 30.6569 32 29 32H3C1.34315 32 0 30.6569 0 29V22C0 20.3431 1.34315 19 3 19V11.9098C3 10.3028 4.30277 9 5.90983 9H6V2.535C6 1.13496 7.13496 0 8.535 0H23.1115ZM5 19H27V15.9049C25.8623 16.305 24.4934 16.0476 23.6137 14.893L23.0742 14.1849C22.7413 13.7479 22.1182 13.6613 21.6787 13.9909L20.4667 14.9C19.4 15.7 17.9333 15.7 16.8667 14.9L16.3889 14.5416C16.0858 14.3144 15.6804 14.2778 15.3416 14.4472L13.5528 15.3416C12.5364 15.8498 11.3202 15.7401 10.4111 15.0584L8.97771 13.9833C8.65532 13.7415 8.19268 13.8507 8.01246 14.2111C7.38093 15.4742 6.10597 15.8711 5 15.5937V19ZM24 6.53866V9H8V6.53291C8.91004 6.62445 9.87296 6.18678 10.2771 5.10899C10.3305 4.96674 10.513 4.92721 10.6204 5.03463L11.2564 5.67061C12.1961 6.61035 13.6685 6.75615 14.7743 6.01895L15.4945 5.53884C15.7143 5.39229 16.0071 5.42127 16.1939 5.60809C17.1914 6.60558 18.8086 6.60558 19.8061 5.60809L20.2363 5.17788C20.5108 4.9034 20.9711 4.96505 21.1637 5.30207C21.8064 6.4267 22.9734 6.78007 24 6.53866ZM8 4.3334C8 4.42444 8.02631 4.45778 8.04015 4.47304C8.06272 4.49794 8.10704 4.52722 8.17162 4.53893C8.23619 4.55064 8.28798 4.53878 8.31785 4.5234C8.33616 4.51397 8.37251 4.49199 8.40447 4.40674C8.96855 2.90253 10.8987 2.48445 12.0346 3.62042L12.6706 4.25639C12.9362 4.52201 13.3524 4.56322 13.6649 4.35485L14.3851 3.87474C15.3982 3.19935 16.7471 3.33293 17.6081 4.19387C17.8245 4.41032 18.1755 4.41032 18.3919 4.19387L18.8221 3.76366C20.0291 2.5567 22.0533 2.82778 22.9002 4.30979C23.1997 4.83397 24 4.62136 24 4.01775V2.89388C24 2.39948 23.5985 2 23.1115 2H8.535C8.23953 2 8 2.23953 8 2.535V4.3334ZM5 12C5 11.4477 5.44772 11 6 11H26C26.032 11 26.0636 11.0015 26.0949 11.0044C26.6021 11.0523 27 11.4802 27 12.0011V13.0779C27 14.0314 25.7869 14.4453 25.2046 13.6809L24.665 12.9728C23.6663 11.662 21.7971 11.4022 20.4787 12.3909L19.2667 13.3C18.9111 13.5667 18.4222 13.5667 18.0667 13.3L17.5889 12.9416C16.6798 12.2599 15.4636 12.1502 14.4472 12.6584L12.6584 13.5528C12.3196 13.7222 11.9142 13.6856 11.6111 13.4584L10.1777 12.3833C8.85708 11.3928 6.96186 11.8402 6.22361 13.3167C5.9188 13.9263 5 13.7094 5 13.0279V12ZM3 21C2.44772 21 2 21.4477 2 22V23.0264C2 24.0311 3.31551 24.4084 3.848 23.5564L4.1111 23.1354C4.97797 21.7485 6.79607 21.3115 8.19858 22.153L10.6638 23.6321C10.9318 23.7929 11.2595 23.8192 11.5497 23.7031L14.7075 22.44C15.578 22.0918 16.5612 22.1705 17.3652 22.6529L18.8188 23.5251C19.1355 23.7151 19.5311 23.7151 19.8478 23.5251L22.4458 21.9663C23.6497 21.244 25.1935 21.4532 26.1617 22.4698L28.2759 24.6897C28.899 25.3439 30 24.9026 30 24.0008V22.0011C30 21.4802 29.6021 21.0523 29.0949 21.0044C29.0636 21.0015 29.032 21 29 21H3ZM30 29V26.8289C28.9627 27.1969 27.7279 27.0143 26.8276 26.069L24.7135 23.8491C24.3907 23.5103 23.8761 23.4405 23.4748 23.6813L20.8768 25.2401C19.9268 25.8101 18.7399 25.8101 17.7898 25.2401L16.3362 24.3679C16.0682 24.2071 15.7405 24.1808 15.4503 24.2969L12.2925 25.56C11.422 25.9082 10.4388 25.8295 9.63483 25.3471L7.16959 23.8679C6.70209 23.5874 6.09605 23.7331 5.8071 24.1954L5.544 24.6164C4.70611 25.957 3.22196 26.2831 2 25.8551V29C2 29.5523 2.44772 30 3 30H29C29.5523 30 30 29.5523 30 29Z" fill="#252A22"/>
</svg>
