<?xml version="1.0" encoding="UTF-8"?>
<svg width="270px" height="180px" viewBox="0 0 270 180" version="1.1" xmlns="http://www.w3.org/2000/svg" xmlns:xlink="http://www.w3.org/1999/xlink">
    <!-- Generator: Sketch 64 (93537) - https://sketch.com -->
    <title>Shape</title>
    <desc>Created with Sketch.</desc>
    <g id="Page-1" stroke="none" stroke-width="1" fill="none" fill-rule="evenodd">
        <path d="M138.480995,166.400883 L148.773042,167.664447 C178.110886,171.229786 192.963087,172.352321 213.523818,171.956787 C226.5965,171.705304 238.712678,170.443041 249.613149,168.497739 L251.298653,168.189553 C254.616762,167.568066 257.616232,166.917465 260.274713,166.266125 L260.932216,166.103291 L261.907543,165.854904 C262.374787,165.733788 262.811293,165.617428 263.216563,165.506456 L264.333206,165.191808 L264.800116,165.052264 C266.907335,164.391699 269.153258,165.557482 269.816525,167.656113 C270.479793,169.754743 269.309239,171.991512 267.20202,172.652077 L266.724435,172.797401 L265.895417,173.036087 L265.0273,173.274469 C264.607499,173.387515 264.142601,173.509767 263.633404,173.640188 L262.882488,173.830305 L261.483081,174.173181 C258.389033,174.915208 254.893429,175.649716 251.024199,176.34022 C239.723116,178.357015 227.189383,179.662779 213.678318,179.922696 L211.661407,179.956971 L209.655941,179.981603 L207.583816,179.996417 C189.521216,180.076299 174.589313,178.827251 147.882083,175.582664 L137.5692,174.316559 L132.259934,173.681233 C102.597549,170.18883 85.9361496,169.269864 63.1620381,170.467799 C50.085987,171.155608 37.517373,172.736551 25.7615163,174.939922 C20.4654461,175.932552 15.663545,176.990626 11.4261702,178.051121 L10.586243,178.263234 L9.10481618,178.647217 L7.75485737,179.009631 C7.46964943,179.087613 7.19435521,179.16384 6.92909161,179.238207 L5.88249874,179.537097 L5.19229397,179.742684 C3.08339184,180.397898 0.840458928,179.226419 0.182563098,177.126112 C-0.475332731,175.025805 0.700940285,172.792014 2.80984242,172.1368 L3.67901564,171.8776 L4.34483989,171.686406 C5.42708268,171.379041 6.67163314,171.041608 8.0711151,170.680864 L8.60316884,170.544505 C13.2045923,169.371937 18.4587967,168.201395 24.2819329,167.109979 C36.3724253,164.843887 49.290989,163.218927 62.7400983,162.511494 L65.0326839,162.39697 L67.3619847,162.293683 L68.878018,162.233989 C90.5053892,161.426349 107.863735,162.684209 138.480995,166.400883 L138.480995,166.400883 Z M198.160761,129.82163 C199.077112,129.834841 199.86915,130.229062 200.403193,130.944982 L200.513633,131.103296 L200.619539,131.294451 C200.679066,131.422851 200.734622,131.562349 200.791126,131.725677 L200.873758,131.988271 L200.946137,132.278346 C201.220511,133.434133 201.877286,136.670759 202.939371,142.095871 L204.961957,152.527736 L204.980653,152.596818 L205.015989,152.779784 L205.037828,152.964702 L205.046182,153.151226 C205.048933,153.622163 204.929438,154.077792 204.681203,154.533545 C204.181611,155.397113 203.358864,155.906338 202.370754,155.912616 C202.235523,155.913475 202.099058,155.90388 201.925203,155.879826 C200.935069,155.721741 200.185169,155.111061 199.83811,154.194058 L199.774117,154.006617 L199.738417,153.866243 L198.601348,148.300986 L193.961832,148.330451 L191.189844,154.304787 L191.093691,154.480609 L191.027188,154.585218 L190.944086,154.703199 L190.868867,154.799862 C190.297082,155.545271 189.542942,155.994083 188.653152,156 C188.125714,156.00309 187.62206,155.854735 187.136668,155.543667 C186.368853,155.019208 185.934221,154.224857 185.928112,153.302058 C185.926259,152.977562 185.990596,152.659566 186.124902,152.332933 L186.407769,151.690443 L192.436379,138.382618 C194.05364,134.836524 195.113429,132.551938 195.618298,131.523414 C196.087018,130.555848 196.881912,129.932719 197.893242,129.834576 L198.098362,129.822 L198.160761,129.82163 Z M222.848712,129.170833 C223.713733,129.611996 224.244257,130.39544 224.313403,131.358258 C224.352486,131.902463 224.230386,132.438011 223.975035,132.957031 L223.857523,133.178434 L223.762733,133.325162 L223.393016,133.819808 C222.907791,134.456209 222.010731,135.608802 220.679528,137.306581 L216.208682,142.989099 L223.208327,148.47069 C224.113502,149.188367 224.6989,149.662096 224.970876,149.897113 C225.624109,150.476783 226.037295,151.121201 226.119705,151.925536 C226.15882,152.470195 226.027398,152.998187 225.771,153.423571 C225.315987,154.246332 224.557766,154.758758 223.628256,154.825125 C223.026332,154.868103 222.443873,154.73894 221.928059,154.462626 L221.670953,154.309215 L221.354833,154.083347 C220.748269,153.635406 219.507003,152.669662 217.553822,151.127256 L214.501853,148.70842 L214.33073,151.502458 C214.303395,151.910413 214.278287,152.260901 214.255374,152.554293 L214.217851,153.005726 C214.067761,154.502361 213.156554,155.551082 211.67266,155.678761 C211.137036,155.717005 210.617254,155.596373 210.169446,155.335488 C209.347132,154.869813 208.871368,154.081591 208.750057,153.121783 L208.729489,152.913539 L208.728264,152.714495 L209.960568,132.012173 L209.987135,131.776233 C210.018667,131.573408 210.070036,131.373034 210.158231,131.12775 C210.55662,130.117461 211.398534,129.484079 212.479606,129.40689 C212.932969,129.37452 213.378783,129.461153 213.789395,129.651725 C214.618369,130.032166 215.167005,130.724701 215.344885,131.601704 L215.377295,131.79241 L215.396858,131.934313 L215.226364,135.264103 L218.145319,131.53303 C218.654359,130.889761 219.015115,130.441828 219.240948,130.172642 L219.399176,129.987778 C219.865722,129.450086 220.403839,129.078971 221.018634,128.934074 L221.226412,128.894236 L221.420266,128.872974 C221.928459,128.836688 222.424113,128.943704 222.848712,129.170833 Z M177.228996,129.040216 C182.198076,129.322533 184.986552,131.597082 184.874588,135.715544 C184.75416,137.725344 184.198463,139.444291 183.210407,140.834261 L183.007032,141.107857 L182.944383,141.184602 L183.106855,141.304649 C184.720487,142.53623 185.580022,144.320773 185.610953,146.591637 L185.610028,146.904308 L185.599464,147.209574 C185.451405,148.485489 185.113394,149.634697 184.578278,150.651707 C182.805426,154.003893 179.152515,155.524172 173.886333,155.329264 L173.498127,155.311944 C172.866024,155.279005 171.947596,155.195364 170.820421,155.068085 C170.287086,155.040294 169.787252,154.864281 169.299417,154.508657 C168.578663,153.933558 168.212613,153.112757 168.206997,152.178023 L168.212101,151.960353 L168.235715,151.761609 L172.06467,131.200967 C172.117815,130.97496 172.197628,130.756454 172.319675,130.514659 C172.800936,129.612485 173.647815,129.104396 174.653956,129.091419 L174.724095,129.091625 L175.174383,129.057759 C175.883177,129.01176 176.566798,129.005696 177.228996,129.040216 Z M241.378236,126.445148 L241.600544,126.455246 L241.865925,126.48712 C242.952194,126.679612 243.72673,127.380155 244.004608,128.395908 L244.050845,128.590009 L244.08358,128.779855 C244.138881,129.170001 244.103953,129.561027 243.991821,129.892862 C243.713175,130.807364 243.030497,131.445339 242.09571,131.777115 L241.891595,131.843513 L241.669454,131.891847 L234.487538,132.902813 L234.555811,138.037908 L239.042338,137.40755 L239.292648,137.386146 C239.623238,137.371657 239.95005,137.407172 240.292669,137.499927 C241.381892,137.814116 242.103838,138.636327 242.262247,139.753904 C242.307962,140.076425 242.294051,140.400986 242.213055,140.749481 C241.967963,141.714937 241.262799,142.381926 240.277791,142.733944 L240.077111,142.800143 L239.963558,142.834597 L234.642426,143.584502 L234.696433,148.16382 L241.443777,147.214733 L241.672569,147.192657 C241.968618,147.174358 242.261219,147.193 242.617586,147.265378 C243.760184,147.548308 244.5256,148.383387 244.689959,149.542946 C244.728711,149.81634 244.723626,150.094077 244.67125,150.4174 C244.473765,151.454027 243.749191,152.174413 242.712841,152.539579 L242.404618,152.636789 L232.352251,154.051242 L232.123,154.06907 C231.699752,154.08316 231.285488,154.002893 230.842036,153.807363 C229.990032,153.393479 229.453628,152.6436 229.266177,151.700847 L229.228922,151.471137 C229.193169,150.998428 229.140712,145.565016 229.014931,130.624236 C229.012836,130.323725 229.053896,130.028901 229.131058,129.774009 C229.415132,128.758493 230.150543,128.059501 231.160757,127.850473 L231.35335,127.817064 L240.892082,126.474252 L241.153638,126.450229 C241.228858,126.446257 241.303738,126.444663 241.378236,126.445148 Z M143.212779,126.052273 C144.938076,126.260911 146.374848,127.065524 147.446218,128.428701 C148.548306,129.845686 148.986993,131.53825 148.744606,133.507481 C148.442294,135.148302 147.592334,136.549143 146.216709,137.680445 C145.645443,138.132432 144.977198,138.532703 144.21228,138.884512 L143.821766,139.056394 L143.656765,139.122029 L144.953954,141.686528 L145.163726,141.574486 C145.624879,141.369295 146.117856,141.291175 146.61457,141.351242 C147.048551,141.403723 147.452867,141.567998 147.841858,141.853372 C148.652296,142.481971 148.999983,143.422464 148.8733,144.463976 C148.778573,145.24277 148.496637,146.050846 148.037526,146.897581 L147.857073,147.216938 L147.78678,147.331678 L148.043947,147.884775 C148.46195,148.778348 148.658632,149.442944 148.581044,150.080822 C148.528167,150.515551 148.371689,150.923041 148.132242,151.266158 C147.545997,152.131593 146.605142,152.531541 145.555793,152.404645 C145.110446,152.350789 144.695756,152.180031 144.30326,151.895671 C144.090336,151.735358 143.894249,151.537169 143.707615,151.297663 L143.558941,151.094096 L143.30147,151.204843 C142.094961,151.69133 140.819719,151.9027 139.490684,151.839501 L139.126898,151.815458 L138.760511,151.777803 C138.39693,151.733835 138.036512,151.665741 137.692901,151.577011 C135.698042,151.081139 134.07765,149.989526 132.882432,148.329689 C131.651382,146.597001 131.159783,144.619855 131.420862,142.473414 C131.561948,141.313485 131.933736,140.210313 132.532488,139.171571 C133.279366,137.883215 134.298521,136.821411 135.573283,135.992791 L135.945978,135.761966 L135.838369,135.417284 C135.566781,134.488872 135.444034,133.545608 135.472662,132.590968 L135.494206,132.181151 L135.528953,131.815748 L135.566851,131.584331 L135.566851,131.584331 L135.58898,131.494144 C135.929577,129.885494 136.772374,128.545839 138.077969,127.525544 L138.321365,127.342923 C139.786638,126.277138 141.442636,125.838211 143.212779,126.052273 Z M255.2225,124.195496 C256.813213,124.402934 258.189185,125.039035 259.305611,126.089757 L259.540856,126.321253 L259.641457,126.424722 L259.720824,126.545158 C259.996634,126.963686 260.171044,127.308522 260.247735,127.684141 C260.337228,128.12246 260.305798,128.568719 260.154118,129.044832 C259.838088,129.948272 259.140609,130.572988 258.204495,130.76301 C257.498765,130.906266 256.822023,130.821436 256.282428,130.442061 L256.138747,130.331243 C255.225268,129.59826 254.472731,129.354283 253.829455,129.479105 C253.32106,129.582304 252.927951,129.845218 252.592252,130.320533 C252.210517,130.864513 252.096497,131.406704 252.227072,132.046236 C252.292542,132.366895 252.435795,132.610642 252.686418,132.826105 C252.942733,133.047228 253.527918,133.345005 254.400524,133.667952 L255.352596,134.007726 C256.366163,134.377234 257.169147,134.714945 257.769265,135.026608 C260.273068,136.319444 261.834847,138.218006 262.332899,140.657373 C262.442411,141.193739 262.498052,141.740259 262.499966,142.306519 C262.49245,144.275714 261.823722,146.068551 260.52446,147.627458 C259.212133,149.207773 257.555192,150.214934 255.600268,150.611764 C254.295858,150.876546 252.966112,150.792411 251.621362,150.363343 C249.937613,149.808681 248.48309,148.799935 247.27644,147.363102 L247.038421,147.070035 L246.917217,146.890912 C246.750064,146.601559 246.636093,146.279114 246.5636,145.924058 C246.486124,145.544595 246.486976,145.15994 246.574822,144.753588 C246.807765,143.768581 247.511536,143.067525 248.54396,142.858492 C249.410007,142.706233 250.234402,142.998482 250.997492,143.622631 L251.180058,143.775144 L251.361863,143.922656 C252.747932,145.055823 253.807332,145.465225 254.519949,145.320571 C255.346717,145.152745 255.959436,144.735167 256.429178,144.018809 C256.892854,143.302763 257.031556,142.580933 256.868332,141.781162 C256.710654,141.044187 256.413267,140.500545 255.965787,140.095353 C255.630213,139.786705 255.008035,139.453598 254.105459,139.131021 L252.175201,138.46311 L251.593632,138.248032 L251.593632,138.248032 L251.427856,138.180581 C250.756484,137.893831 250.161899,137.571214 249.644949,137.20974 C248.240747,136.228466 247.344274,134.826025 246.987662,133.079407 C246.941503,132.853327 246.906052,132.616645 246.882109,132.381009 C246.676233,130.505011 247.128412,128.763933 248.228598,127.217994 C249.289755,125.753424 250.712424,124.789779 252.442085,124.363603 L252.76998,124.290002 C253.574796,124.126632 254.389808,124.094548 255.2225,124.195496 Z M23.3984024,123.81341 C25.2414169,124.370877 26.7630268,125.671063 27.9224615,127.580677 L28.1025145,127.88724 C28.3187967,128.225447 28.4653771,128.589202 28.5310859,128.972919 C28.6120632,129.445799 28.5645195,129.921865 28.3873726,130.396817 C28.0262433,131.32161 27.2821192,131.939593 26.2069308,132.119367 C25.272288,132.216629 24.4311788,131.849303 23.7659423,131.141354 L23.6261135,130.984482 L23.4960736,130.806053 C23.2538609,130.417385 22.9840315,130.079695 22.7077592,129.810635 C22.0929282,129.23546 21.6218675,129.053041 21.221306,129.121236 C20.9622822,129.165335 20.6799153,129.32648 20.3506597,129.662364 C19.565582,130.44887 18.9338451,131.792494 18.5039585,133.719781 C18.033036,135.771249 17.9562978,137.697558 18.2663322,139.508052 C18.5615614,141.232088 19.0710817,142.579053 19.7728551,143.558027 C20.3980432,144.427999 20.9212803,144.696987 21.4944133,144.59941 C21.6869593,144.566629 21.9931361,144.376188 22.3768179,143.975961 C23.0797463,143.231524 23.6535632,142.219935 24.0875645,140.928289 L24.1828677,140.627809 L24.2026142,140.547535 L24.2324198,140.443456 L24.2637154,140.352424 L24.2947681,140.278205 C24.6458748,139.358532 25.3841826,138.743158 26.353855,138.578071 C26.8057985,138.501127 27.261281,138.535647 27.7528172,138.696665 C28.7000216,139.044331 29.3256344,139.802824 29.4959091,140.797169 C29.5649046,141.20008 29.5310206,141.611745 29.412884,142.058497 C28.9708026,143.646725 28.3426869,145.053372 27.521595,146.278066 C26.0929938,148.389575 24.2968435,149.675663 22.1683139,150.038047 C21.8842603,150.086407 21.5971419,150.115432 21.2977031,150.125433 C19.2725038,150.180409 17.4494185,149.294776 15.9035015,147.570222 C14.300727,145.778022 13.2602907,143.41761 12.7641462,140.520298 C12.4722934,138.815978 12.4226409,137.053482 12.6132872,135.238347 C12.9102231,132.374867 13.7112592,129.876055 15.0292689,127.751077 C16.4260475,125.526123 18.1645407,124.140218 20.2271662,123.698035 L20.5104407,123.643596 C21.4744796,123.479468 22.4372028,123.534902 23.3984024,123.81341 Z M175.16838,144.606644 L174.173834,149.934787 L174.184143,149.935705 C175.284307,149.966983 176.262003,149.888015 177.113664,149.703987 L177.427123,149.630062 C179.291945,149.143357 180.093834,148.276924 180.169136,146.840866 C180.201359,146.13454 179.762063,145.630713 178.462158,145.190754 C177.885661,145.004836 177.024224,144.83644 175.890911,144.691659 L175.16838,144.606644 Z M106.278737,121.842133 C107.096268,121.920745 107.88502,122.12787 108.651635,122.467363 C110.118355,123.132818 111.250967,124.148622 112.010226,125.487917 L112.157088,125.760081 L112.222919,125.888374 L112.263466,126.026696 C112.404373,126.507379 112.469945,126.88801 112.433042,127.269564 C112.389979,127.714808 112.228956,128.132362 111.944185,128.543376 C111.376846,129.315056 110.526556,129.708915 109.575652,129.617479 C108.858771,129.548545 108.23655,129.269968 107.831914,128.749756 L107.727046,128.601865 C107.068671,127.634432 106.420678,127.181559 105.768929,127.113222 C105.252501,127.063563 104.799439,127.200267 104.33894,127.556824 C103.814267,127.965608 103.546115,128.450797 103.483283,129.100433 C103.45178,129.426158 103.517227,129.701034 103.693644,129.980192 C103.873844,130.266424 104.346021,130.721911 105.08565,131.285332 L105.29398,131.441622 C106.450672,132.285294 107.318611,132.989187 107.908187,133.567448 C109.922965,135.534254 110.859185,137.805406 110.619527,140.283314 C110.566831,140.828154 110.459643,141.366986 110.295286,141.909016 C109.710177,143.789818 108.544558,145.309053 106.844659,146.42062 C105.125986,147.548845 103.245993,148.028454 101.260183,147.837504 C99.9351628,147.710093 98.6883175,147.241646 97.5283569,146.438988 C96.0810963,145.417319 94.9862911,144.028328 94.2541457,142.302314 L94.1125551,141.952626 L94.0492262,141.745979 C93.9743103,141.420521 93.9599595,141.078936 93.9948423,140.71827 C94.032123,140.332812 94.1458272,139.965243 94.3490847,139.602311 C94.8609115,138.728389 95.7396224,138.26337 96.7882006,138.364728 C97.6610224,138.471831 98.3635597,138.991829 98.9100701,139.811312 L99.1704392,140.20452 C100.163271,141.692512 101.056144,142.393106 101.780021,142.462712 C102.619851,142.543468 103.3283,142.322949 103.987718,141.775011 C104.641243,141.225601 104.985716,140.575839 105.064355,139.763451 C105.129868,139.01273 105.005048,138.406113 104.696073,137.888093 C104.46577,137.495041 103.968588,136.994975 103.200193,136.423165 L101.686968,135.322521 L101.267854,135.008809 C101.112032,134.890134 100.996318,134.798738 100.918735,134.733056 C100.360909,134.262964 99.8870332,133.78098 99.498798,133.284494 C98.4440501,131.936455 97.99841,130.333831 98.1700082,128.559617 C98.1922196,128.329965 98.2277822,128.0933 98.2740421,127.860993 C98.6069427,126.1161 99.4621654,124.655573 100.808332,123.531552 L101.076839,123.316864 C102.611652,122.157854 104.37075,121.658666 106.278737,121.842133 Z M44.4769273,121.963878 L44.6082069,122.123574 L44.7284782,122.306084 C44.7976873,122.429564 44.8637902,122.564412 44.9326676,122.722948 L45.0026877,122.889837 C45.3052601,123.672952 46.8344383,129.097826 49.6978049,139.529614 L50.6901642,143.152682 L50.712236,143.213151 L50.761522,143.392913 L50.7974749,143.575556 L50.8198692,143.760697 C50.8590299,144.230088 50.774867,144.693561 50.5623257,145.166977 C50.130497,146.066144 49.3492579,146.636672 48.3645295,146.71835 C48.229761,146.729529 48.0929602,146.730378 47.9177684,146.719664 C46.9184031,146.637617 46.1238201,146.085966 45.7073798,145.198144 L45.629185,145.016137 L45.5828131,144.8789 L44.0228348,139.415666 L39.3986041,139.799731 L37.0929902,145.968642 L37.0106178,146.151287 L36.9523405,146.260665 L36.8785404,146.384643 L36.8109627,146.486764 C36.2980627,147.273657 35.5805566,147.778723 34.6940321,147.852256 C34.168338,147.89586 33.6547127,147.786385 33.1468176,147.513252 C32.3409744,147.048927 31.8466279,146.290055 31.769925,145.370674 C31.7429383,145.047203 31.7826702,144.725155 31.891527,144.389164 L32.195962,143.527065 L36.451618,131.808526 C38.1672186,127.107644 39.2687463,124.146401 39.759489,122.916104 C40.1525518,121.915601 40.8972752,121.233629 41.8981035,121.058582 L42.1016556,121.030387 L42.1638438,121.025255 C43.0738529,120.968775 43.8901292,121.297712 44.4769273,121.963878 Z M81.8145584,120.207322 L82.0365511,120.210591 L91.6565049,120.716613 L91.9178265,120.743048 C92.1415902,120.774502 92.3582361,120.826375 92.6097989,120.915451 C93.7639485,121.360279 94.4103667,122.357309 94.3453443,123.589675 C94.3245834,123.983154 94.2150996,124.360244 94.0412289,124.664479 C93.5918721,125.508729 92.7991654,126.004327 91.817919,126.151204 L91.6048225,126.17734 L91.3775084,126.182301 L84.1348257,125.801669 L83.213648,130.854465 L87.7383407,131.093301 L87.9881216,131.120157 C88.3153625,131.169149 88.6292783,131.266495 88.947699,131.423042 C89.9562803,131.93967 90.506695,132.884666 90.4472253,134.011791 C90.430063,134.337066 90.3539893,134.652944 90.2074713,134.979484 C89.7812471,135.880158 88.9608913,136.399932 87.9264626,136.557072 L87.7167759,136.58367 L87.5987039,136.595772 L82.2323492,136.313678 L81.4049196,140.819841 L88.2090391,141.177649 L88.4378309,141.19973 C88.7319044,141.238378 89.0154895,141.312623 89.3513222,141.4518 C90.4182996,141.947956 91.0089023,142.913892 90.9471986,144.083357 C90.9326505,144.359087 90.8742439,144.630697 90.7606571,144.938005 C90.3690038,145.913804 89.5244245,146.481653 88.4431776,146.644431 L88.2238368,146.671586 L88.1092485,146.682797 L77.9714136,146.148874 L77.7429886,146.122535 C77.3248861,146.055434 76.9337479,145.897445 76.536132,145.620751 C75.7795416,145.051636 75.397314,144.213108 75.3946572,143.252009 L75.3998995,143.044237 C75.4133497,142.789316 76.3896373,137.536937 79.2017663,122.519068 C79.2572706,122.22352 79.3543045,121.941842 79.4791341,121.706289 C79.893981,120.881733 80.6013623,120.361091 81.4628616,120.235785 L81.6497771,120.215019 L81.8145584,120.207322 Z M138.215295,140.594279 L138.074459,140.708836 L137.903948,140.862371 C137.205896,141.539752 136.823714,142.285037 136.723316,143.106566 C136.644777,143.920623 136.865655,144.67458 137.382819,145.380568 C137.952637,146.089728 138.637693,146.473581 139.513095,146.579442 C139.683932,146.600101 139.868322,146.608181 140.055139,146.603307 C140.404058,146.591541 140.717394,146.544776 140.999703,146.463211 L141.130659,146.419269 L138.215295,140.594279 Z M59.9789701,120 C60.4334423,119.997728 60.8724863,120.113595 61.2695123,120.330833 C62.0714117,120.765154 62.5728681,121.492383 62.6921354,122.379202 L62.711813,122.571629 L62.7219132,122.714513 L62.330223,126.025199 L65.2719984,122.737784 C65.946028,121.991076 66.4090456,121.486947 66.6823564,121.202267 L66.8454204,121.035399 C67.3459728,120.530594 67.9074801,120.195901 68.5305394,120.091911 L68.7405063,120.065875 L68.9353466,120.057454 C69.4448339,120.054791 69.932296,120.194287 70.3408852,120.448943 C71.1747211,120.946232 71.6520694,121.762974 71.6571442,122.728245 C71.6600126,123.273836 71.5026263,123.80015 71.213379,124.301178 L71.0814256,124.514339 L71.0203261,124.600165 L70.6460631,125.042514 C70.0742735,125.699898 68.8851663,127.033713 67.0391059,129.088962 L62.7979449,133.798965 L69.0923362,139.43494 C70.134945,140.377657 70.7954842,140.986634 71.082413,141.269834 C71.6957106,141.891328 72.0652053,142.561584 72.0941453,143.369738 C72.0969084,143.915745 71.9307248,144.433867 71.646667,144.841367 C71.1380302,145.632292 70.347453,146.093548 69.4155761,146.098419 C68.8121188,146.101574 68.2395129,145.93425 67.7431739,145.624496 L67.5607105,145.501716 C67.2649284,145.295842 65.8461996,144.040082 63.1056004,141.560829 L60.715105,139.392297 L60.3923691,141.91935 L60.2182629,143.18461 L60.2182629,143.18461 L60.1465976,143.66189 C59.8974806,145.145323 58.9186668,146.131594 57.4294206,146.161159 C56.8924732,146.163855 56.3818804,146.009182 55.9524034,145.719333 C55.1628082,145.200404 54.7404169,144.382508 54.6830914,143.416799 L54.6763943,143.207654 L54.6883859,143.008965 L57.2923771,122.433387 L57.3345495,122.199718 C57.3794777,121.999419 57.4440371,121.802875 57.5483224,121.563951 C57.9838658,120.643546 58.7863665,120.079403 59.7780068,120.007785 L59.9789701,120 Z M197.362751,140.040026 L196.03601,144.104209 L197.933392,144.086704 L197.362751,140.040026 Z M176.997488,134.328325 L176.163945,138.96759 L176.209888,138.964321 C178.307347,138.73766 179.268338,137.722542 179.434309,135.704793 L179.449065,135.48476 C179.461729,135.169401 179.38707,135.009832 179.199122,134.869419 C178.876145,134.643949 178.194997,134.452875 177.183856,134.3463 L176.997488,134.328325 Z M42.1468523,131.307621 L41.0381782,135.371804 L42.9335217,135.154483 L42.1468523,131.307621 Z M141.513,131.557977 C141.102427,131.814985 140.899999,132.136107 140.838977,132.637793 C140.820431,132.790269 140.826321,132.961401 140.857125,133.137203 C140.894728,133.337348 140.991307,133.633201 141.146101,134.015425 L141.288605,134.35271 L141.494232,134.282482 C142.048409,134.08231 142.483437,133.862654 142.798825,133.631361 L142.926665,133.531546 C143.163348,133.335017 143.332764,133.064975 143.438013,132.682542 L143.461117,132.584791 L143.468188,132.500148 C143.471949,132.319026 143.436575,132.156483 143.360945,131.999793 L143.296656,131.883174 C143.088355,131.555573 142.843189,131.401896 142.447615,131.354059 C142.101236,131.312172 141.805884,131.377336 141.513,131.557977 Z M138.480995,100.400883 L148.773042,101.664447 C178.110886,105.229786 192.963087,106.352321 213.523818,105.956787 C226.5965,105.705304 238.712678,104.443041 249.613149,102.497739 L251.298653,102.189553 C254.616762,101.568066 257.616232,100.917465 260.274713,100.266125 L260.932216,100.103291 L261.907543,99.8549045 C262.374787,99.7337883 262.811293,99.6174281 263.216563,99.5064564 L264.333206,99.1918084 L264.800116,99.0522637 C266.907335,98.3916993 269.153258,99.5574822 269.816525,101.656113 C270.479793,103.754743 269.309239,105.991512 267.20202,106.652077 L266.724435,106.797401 L265.895417,107.036087 L265.0273,107.274469 C264.607499,107.387515 264.142601,107.509767 263.633404,107.640188 L262.882488,107.830305 L261.483081,108.173181 C258.389033,108.915208 254.893429,109.649716 251.024199,110.34022 C239.723116,112.357015 227.189383,113.662779 213.678318,113.922696 L211.661407,113.956971 L209.655941,113.981603 L207.583816,113.996417 C189.521216,114.076299 174.589313,112.827251 147.882083,109.582664 L137.5692,108.316559 L132.259934,107.681233 C102.597549,104.18883 85.9361496,103.269864 63.1620381,104.467799 C50.085987,105.155608 37.517373,106.736551 25.7615163,108.939922 C20.4654461,109.932552 15.663545,110.990626 11.4261702,112.051121 L10.586243,112.263234 L9.10481618,112.647217 L7.75485737,113.009631 C7.46964943,113.087613 7.19435521,113.16384 6.92909161,113.238207 L5.88249874,113.537097 L5.19229397,113.742684 C3.08339184,114.397898 0.840458928,113.226419 0.182563098,111.126112 C-0.475332731,109.025805 0.700940285,106.792014 2.80984242,106.1368 L3.67901564,105.8776 L4.34483989,105.686406 C5.42708268,105.379041 6.67163314,105.041608 8.0711151,104.680864 L8.60316884,104.544505 C13.2045923,103.371937 18.4587967,102.201395 24.2819329,101.109979 C36.3724253,98.8438873 49.290989,97.2189268 62.7400983,96.5114939 L65.0326839,96.3969705 L67.3619847,96.2936826 L68.878018,96.2339893 C90.5053892,95.4263487 107.863735,96.6842087 138.480995,100.400883 L138.480995,100.400883 Z M37.8219356,1.85004865 C43.481364,6.77402618 42.4286942,19.2217135 35.1502525,34.1315734 C31.1161016,42.395516 26.1628774,48.9940493 20.3035051,53.8773659 L20.039919,54.0944433 L20.0231089,54.3700113 C19.7470228,59.1163406 19.9643836,62.8430781 20.7300083,65.203673 L20.8058144,65.4278412 C21.5370633,67.5019439 23.8755508,68.9399152 27.1375682,68.9233113 C31.3590884,68.9018236 36.1875919,66.492722 40.5832298,61.5859729 C41.2179036,60.8775013 41.9481911,59.4950506 42.6979152,57.6444366 L42.9281514,57.0608352 L42.9315092,56.9809672 C43.0037868,55.2878944 43.1674063,53.5083283 43.4121433,51.6523324 L43.4808933,51.1442643 C43.9669826,47.640447 44.7420897,44.065317 45.6074098,41.1117925 C45.9985113,39.7768785 46.3917418,38.6299709 46.7543034,37.7764567 C46.9840962,37.2354964 47.2103889,36.7844888 47.4775384,36.3800627 C47.7437149,35.9771097 48.0405117,35.6217846 48.4721382,35.2783976 C49.6087615,34.3741395 51.1917776,33.9615588 52.8713115,34.8007097 C54.5327835,35.6308363 54.9773868,36.718272 55.1776157,38.1408814 C55.2402965,38.5862231 55.2533177,39.0446446 55.2353288,39.5659385 C55.2083416,40.3479929 55.1044252,41.3361748 54.9336662,42.5001124 C54.5986966,44.7833525 54.0162453,47.6692762 53.297903,50.5615493 C52.6398751,53.2109778 51.930437,55.6711395 51.1715982,57.873794 L50.9344757,58.5460328 L50.9342336,58.6241639 C50.9260603,62.8012025 51.6518829,65.8356676 52.9890766,67.0539549 L53.1051876,67.153916 C56.4304505,69.8537102 60.2670133,68.8807136 65.8481361,62.883831 C65.5063577,58.0231636 66.0687307,50.1295081 67.5284563,39.0684769 L65.4811488,39.1516898 L65.4811488,39.1516898 L63.2350825,39.2335233 C61.0238296,39.3090662 59.1699704,37.5790462 59.094372,35.3694154 C59.0187736,33.1597846 60.7500636,31.3072853 62.9613166,31.2317423 L64.9510317,31.1594503 C66.2087283,31.1109881 67.4478633,31.0579228 68.6684059,31.0003075 L68.9314929,29.2556812 C70.0513596,21.9019155 71.4670718,13.4913615 73.1769807,3.99883593 C73.5689397,1.82288363 75.651938,0.376438173 77.8294877,0.768109588 C80.0070375,1.159781 81.4545448,3.24125129 81.0625858,5.4172036 L80.2057563,10.2262316 L79.5947053,13.7268436 C78.5354254,19.8524092 77.6202956,25.4560728 76.8488937,30.5282759 C81.5372271,30.203353 85.9052463,29.8037775 89.95243,29.3323597 L90.3869912,26.5177046 C91.4335412,19.8336752 92.7080524,12.333295 94.2093563,3.99883593 C94.6013153,1.82288363 96.6843136,0.376438173 98.8618633,0.768109588 C101.039413,1.159781 102.48692,3.24125129 102.094961,5.4172036 L101.238132,10.2262316 L100.812596,12.6571909 C99.8366275,18.2682013 98.9792771,23.4502768 98.24023,28.1962841 C103.024118,27.4303727 107.233041,26.5408437 110.86138,25.5368659 L111.365498,25.3943014 L111.424551,25.026149 C111.889584,22.1155596 112.388789,19.1163376 112.919029,16.0496705 L113.31339,13.7890007 C115.021203,4.08395159 122.150995,-1.27921619 129.299489,1.12761947 C136.542376,3.56623629 138.669595,12.2002356 133.657605,20.743828 C131.117838,25.0731943 126.191429,28.5822276 118.835153,31.3451926 L118.535535,31.4551885 L118.120636,34.2540402 L117.658909,37.4928329 C116.06532,48.936978 115.221524,57.9881461 115.407703,62.5246778 L115.431398,62.9900194 C115.442466,63.1697014 115.458989,63.3451809 115.480751,63.5164309 C115.583192,63.8265122 115.646355,64.149217 115.669592,64.4759911 C117.281379,70.4797499 126.165676,70.0197979 129.72392,61.5187977 C128.990366,52.0298281 132.369808,43.0217545 138.617398,37.6923581 C142.442406,34.429503 147.653821,33.1727101 151.95576,34.641995 C157.06818,36.3880922 159.668179,41.3937539 158.701109,47.8361573 C157.401229,56.4956621 150.120896,61.0284982 138.20978,61.6931784 L137.78717,61.7135869 L137.800439,61.8351277 C137.865299,62.4020566 137.949614,62.9716785 138.053983,63.542768 L138.13603,63.9713413 C138.664412,66.6113129 142.408554,68.8272731 147.504626,68.9406031 C153.16333,69.0664453 158.373976,66.5825059 161.110056,62.0526765 C161.051057,61.1072312 161.03533,60.1260372 161.061338,59.1124826 C161.225705,52.7068491 162.646839,46.4823362 165.422932,37.2354813 C166.058702,35.1178024 168.292074,33.9160998 170.411308,34.5514034 C172.530541,35.1867071 173.733126,37.4184405 173.097356,39.5361195 L172.511396,41.5147398 L172.125389,42.8541553 C170.19141,49.6523951 169.192255,54.5937492 169.071039,59.3177089 C168.901145,65.9387087 170.592662,68.7737215 174.897787,68.9124946 C180.241996,69.084762 182.147968,66.7826531 184.197461,58.2971383 L184.387157,57.4961897 C185.008783,54.8219423 186.169141,48.1961911 187.838848,37.7541565 C188.664321,32.5918035 196.383746,33.6604552 195.773667,38.8526267 L195.459354,41.4994726 L194.987802,45.3648303 C194.516198,49.1672494 194.044434,52.7808674 193.572475,56.2058171 L193.126323,59.3788554 L192.490178,63.8099421 L192.410681,64.4310552 C192.364502,64.8114221 192.328373,65.1510225 192.280788,65.609759 C192.078843,67.5565848 193.000147,68.4573918 195.318714,68.722741 C196.514053,68.859542 197.803351,68.7086757 198.784608,68.3411523 C199.11731,68.2165408 199.377105,68.0805591 199.546072,67.9593094 L199.596151,67.9210559 L199.643531,67.8026286 L199.661577,67.7632335 L199.797254,66.3624077 C200.015084,64.216624 200.297317,61.8702623 200.643784,59.3216304 L201.322287,54.5164544 C202.056255,49.3959996 202.901906,43.6526506 203.859284,37.2860376 C204.18806,35.0996616 206.228295,33.5935836 208.416276,33.9221182 C210.537954,34.2406972 212.019471,36.1674012 211.807528,38.2774554 L211.782665,38.4757666 L211.652873,39.3335411 L211.771109,39.2155413 C215.266249,35.7711369 219.4154,34.2826505 224.073178,35.4352364 L224.398963,35.5199431 C229.633826,36.9465857 232.828641,40.2251388 233.915353,44.9036735 C234.62166,47.9444775 234.458426,51.0578199 233.646339,55.6296998 L233.299397,57.4815091 L232.948176,59.2700464 C231.565403,66.4245364 231.734775,68.2718895 233.227055,68.8141386 C233.361212,68.8628872 233.466197,68.8768755 233.587254,68.8667808 C234.448215,68.7949873 235.949035,67.7425134 238.026495,65.4578592 L238.259693,65.1989252 C239.177426,64.170297 240.151063,62.9791884 241.426274,61.3395092 L245.898337,55.5222044 L246.785954,54.3846773 L246.626498,54.3020583 C241.715704,51.6974873 239.227221,47.6070743 240.403187,41.9725569 L240.473673,41.6519725 C242.931475,31.0093083 258.84306,31.0093083 261.300862,41.6519725 C261.904411,44.2654308 261.219885,46.9452847 259.55113,50.0460718 L259.401373,50.3183986 L259.542632,50.3772497 C266.552914,53.3368167 270.610899,58.2839522 269.924925,65.2105559 L269.888023,65.547259 C268.91812,73.6238525 262.28486,77.5171098 254.173173,76.9449401 C249.715485,76.6305106 245.412487,75.0461895 242.597266,72.5706846 L242.435257,72.425224 L242.335346,72.5252742 C239.738519,75.0446952 237.308647,76.4928005 234.582187,76.8125535 L234.253559,76.8455041 C232.978702,76.9518114 231.712182,76.7830584 230.488895,76.3385532 C226.483193,74.8830027 224.416464,71.7067982 224.052573,67.498569 L224.027937,67.1728351 C223.868443,64.717085 224.103647,62.7925338 224.97875,58.272988 L225.582324,55.1833871 L225.721667,54.4281296 L225.849676,53.6930322 C227.019627,46.7441957 226.219776,44.3150408 222.290779,43.2442821 C217.822488,42.0265513 213.154514,48.7359597 209.671698,60.9921755 L209.524805,61.5271476 L209.375892,62.1053374 C208.726294,64.7042932 208.021067,68.5171976 207.276257,73.5004785 C206.756202,76.9799909 203.010752,77.697611 200.844548,76.1168918 C198.850173,76.7325896 196.60539,76.9287901 194.407027,76.6771977 C191.096729,76.2983496 188.291073,74.9159705 186.470864,72.7096166 L186.378805,72.5958253 L186.266252,72.713119 C183.415255,75.6452861 179.549147,77.0730489 174.639459,76.9147881 C169.514232,76.7495795 165.929578,74.6963623 163.733679,71.2407911 C159.322822,75.0985876 153.4363,77.0809542 147.326356,76.945077 C141.421629,76.8137635 136.121955,74.689509 132.991562,71.0492081 C129.728442,74.5196046 125.473613,76.4769652 120.995729,76.4934034 C116.868164,76.5084385 113.228888,74.850827 110.75709,71.993861 C103.889387,77.9768993 94.6934299,77.9667415 89.9412794,71.8030916 C82.8911106,78.1197074 73.2761555,78.0308702 68.5819311,71.3592154 C61.4478961,77.4920066 54.3289455,78.4635722 48.0526691,73.3678385 C46.6315129,72.2139961 45.5350802,70.7486883 44.7256312,69.009061 L44.6698324,68.8863705 L44.3628202,69.1808794 C39.1499167,74.1178793 33.2623967,76.7748925 27.5836393,76.92333 L27.1783808,76.9299038 C20.6821493,76.9627295 15.1860049,73.5830673 13.2487487,68.0882644 C12.478515,65.9035854 12.0514014,63.1940821 11.9267024,60.0056138 L11.9063989,59.3907139 L11.6127218,59.5378697 C9.72493466,60.4656576 7.76553533,61.2551662 5.73481384,61.905278 L5.17921261,62.0791243 C3.06346088,62.7259123 0.823595009,61.5363401 0.176332162,59.4221405 C-0.470930686,57.3079408 0.719514762,55.0697181 2.83526649,54.42293 C6.1844146,53.3990911 9.31159999,51.9099641 12.2191128,49.9467239 L12.3330557,49.8670346 L12.393239,49.293293 C12.6833013,46.5324285 13.0933767,43.5731484 13.610883,40.4296277 L13.723417,39.7532013 C15.109085,31.5093305 17.2156723,22.3998469 18.6837356,17.2653946 C20.5124157,10.8697094 23.1232703,5.9811585 26.2219473,3.05880136 C29.8534244,-0.366038514 34.4073666,-1.12079222 37.8219356,1.85004865 Z M254.789274,57.1288901 L253.928185,58.2517705 L253.227086,59.153859 L253.227086,59.153859 L252.53631,60.035953 L247.882779,66.0851554 L247.665308,66.3633361 L247.721283,66.4145124 C247.97284,66.6413139 248.350626,66.9291496 248.864645,67.2324462 L249.063807,67.3468181 C250.611496,68.21194 252.690991,68.8140143 254.737346,68.9583569 C259.028342,69.2610285 261.549959,67.7810165 261.932763,64.593328 C262.305132,61.4925254 260.108354,59.0146838 255.270895,57.2941398 L254.789274,57.1288901 Z M88.7651743,37.5425164 L88.2247518,37.5997574 C84.2905207,38.0119394 80.1080275,38.3569641 75.6758987,38.6371913 L75.4225555,40.5283797 C73.8199325,52.708031 73.3613904,60.5939667 74.0373611,63.9713413 C75.2384672,69.9724659 82.2031393,70.2192265 86.9013237,63.1676147 L86.8595446,62.5697058 C86.5492977,57.4598302 87.1867672,49.1654892 88.7651743,37.5425164 Z M110.056483,34.0132512 L109.712923,34.098909 C105.901748,35.024706 101.666491,35.8258842 97.00403,36.5078057 L96.7302926,38.4787936 C94.9062201,51.8263068 94.3565613,60.4080797 95.0697367,63.9713413 C96.2310866,69.7738309 102.780773,70.1965867 107.460017,63.8439 L107.434199,63.4818981 L107.434199,63.4818981 L107.40582,62.9291982 L107.386439,62.3400087 C107.254709,56.9761369 108.165501,47.4129406 109.838414,35.5447628 L110.056483,34.0132512 Z M143.819505,43.7817843 C141.185987,46.0282602 139.253594,49.3930722 138.300967,53.3059417 L138.214828,53.6741044 L138.328564,53.667687 C146.288383,53.1509013 150.035578,50.8060447 150.742989,46.8577598 L150.777421,46.648476 C151.20101,43.8266199 150.581455,42.6338175 149.3644,42.2181443 C147.890697,41.7148155 145.593007,42.26893 143.819505,43.7817843 Z M248.28082,43.4523002 C247.860294,45.2732428 248.684747,46.6143236 251.298075,47.7035764 L251.565311,47.8113771 L251.682444,47.6304626 C253.045448,45.4997593 253.604908,44.1785997 253.505814,43.5163359 L253.493715,43.4523002 C252.946892,41.0844736 248.827643,41.0844736 248.28082,43.4523002 Z M32.7837605,8.1744874 L32.7464785,8.11536882 L32.706183,8.13578592 C32.4592651,8.26447803 32.1217289,8.5039413 31.7213902,8.88150003 C29.8022522,10.6914359 27.8525354,14.3420758 26.3877862,19.4649372 L26.1632444,20.2642575 C24.8624442,24.9723083 23.0979467,32.6479642 21.841351,39.8197311 L21.6493965,40.9318298 L21.7411303,40.8156407 C23.8863669,38.0132028 25.8558946,34.8181554 27.651383,31.224065 L27.9490199,30.621354 C31.192367,23.9773698 32.963948,18.1832668 33.3446083,13.6820063 C33.5834158,10.8581382 33.2360836,8.95264296 32.7837605,8.1744874 Z M53.2896688,18.7895629 L53.5300964,18.7960392 C55.8237495,18.8968053 58.0382971,20.0964972 58.8684543,22.4735344 C59.8124964,25.1766648 58.5095123,27.6104356 56.0152309,29.5344678 L55.8219991,29.6737521 L55.7348883,29.7599549 C54.1721205,31.2190869 51.7511127,31.18741 50.2269698,29.7244285 L50.0725711,29.5679823 C47.9104735,27.2557164 46.9161067,24.8292919 47.8206825,22.336146 C48.7066544,19.8942753 50.9671533,18.7665731 53.2896688,18.7895629 Z M121.204651,15.1756022 C120.902333,16.8935943 120.60944,18.5931827 120.326546,20.2700232 L120.005799,22.1857142 L120.096646,22.1419815 C123.227768,20.5719648 125.399286,18.8292957 126.600309,16.932684 L126.745381,16.6948071 C129.388499,12.1892658 128.694553,9.37266014 126.741144,8.71496453 C124.675449,8.01946285 122.12653,9.93680887 121.204651,15.1756022 Z" id="Shape" fill="#252A22" fill-rule="nonzero"></path>
    </g>
</svg>